<?xml version="1.0" encoding="utf-8" standalone="no"?>
<!DOCTYPE svg PUBLIC "-//W3C//DTD SVG 1.1//EN"
  "http://www.w3.org/Graphics/SVG/1.1/DTD/svg11.dtd">
<svg xmlns:xlink="http://www.w3.org/1999/xlink" width="1000.8pt" height="496.600312pt" viewBox="0 0 1000.8 496.600312" xmlns="http://www.w3.org/2000/svg" version="1.1">
 <metadata>
  <rdf:RDF xmlns:dc="http://purl.org/dc/elements/1.1/" xmlns:cc="http://creativecommons.org/ns#" xmlns:rdf="http://www.w3.org/1999/02/22-rdf-syntax-ns#">
   <cc:Work>
    <dc:type rdf:resource="http://purl.org/dc/dcmitype/StillImage"/>
    <dc:date>2025-05-02T19:14:20.834947</dc:date>
    <dc:format>image/svg+xml</dc:format>
    <dc:creator>
     <cc:Agent>
      <dc:title>Matplotlib v3.9.4, https://matplotlib.org/</dc:title>
     </cc:Agent>
    </dc:creator>
   </cc:Work>
  </rdf:RDF>
 </metadata>
 <defs>
  <style type="text/css">*{stroke-linejoin: round; stroke-linecap: butt}</style>
 </defs>
 <g id="figure_1">
  <g id="patch_1">
   <path d="M 0 496.600312 
L 1000.8 496.600312 
L 1000.8 0 
L 0 0 
z
" style="fill: #ffffff"/>
  </g>
  <g id="axes_1">
   <g id="LineCollection_1">
    <path d="M 92.796694 64.861139 
L 356.813377 148.289853 
" clip-path="url(#pd67947de79)" style="fill: none; stroke: #808080"/>
    <path d="M 356.813377 148.289853 
L 546.571155 158.398492 
" clip-path="url(#pd67947de79)" style="fill: none; stroke: #808080"/>
    <path d="M 356.813377 148.289853 
L 394.952625 210.326787 
" clip-path="url(#pd67947de79)" style="fill: none; stroke: #808080"/>
    <path d="M 394.952625 210.326787 
L 428.052389 324.668187 
" clip-path="url(#pd67947de79)" style="fill: none; stroke: #808080"/>
    <path d="M 394.952625 210.326787 
L 546.571155 158.398492 
" clip-path="url(#pd67947de79)" style="fill: none; stroke: #808080"/>
    <path d="M 546.571155 158.398492 
L 742.989614 161.545509 
" clip-path="url(#pd67947de79)" style="fill: none; stroke: #808080"/>
    <path d="M 742.989614 161.545509 
L 854.06202 197.486369 
" clip-path="url(#pd67947de79)" style="fill: none; stroke: #808080"/>
    <path d="M 742.989614 161.545509 
L 865.702311 147.929755 
" clip-path="url(#pd67947de79)" style="fill: none; stroke: #808080"/>
    <path d="M 865.702311 147.929755 
L 854.06202 197.486369 
" clip-path="url(#pd67947de79)" style="fill: none; stroke: #808080"/>
    <path d="M 854.06202 197.486369 
L 908.003306 258.10861 
" clip-path="url(#pd67947de79)" style="fill: none; stroke: #808080"/>
    <path d="M 908.003306 258.10861 
L 898.802178 382.301628 
" clip-path="url(#pd67947de79)" style="fill: none; stroke: #808080"/>
    <path d="M 898.802178 382.301628 
L 814.860973 436.344724 
" clip-path="url(#pd67947de79)" style="fill: none; stroke: #808080"/>
    <path d="M 814.860973 436.344724 
L 662.141441 449.059486 
" clip-path="url(#pd67947de79)" style="fill: none; stroke: #808080"/>
    <path d="M 662.141441 449.059486 
L 577.926667 430.215583 
" clip-path="url(#pd67947de79)" style="fill: none; stroke: #808080"/>
    <path d="M 577.926667 430.215583 
L 428.052389 324.668187 
" clip-path="url(#pd67947de79)" style="fill: none; stroke: #808080"/>
   </g>
   <g id="text_1">
    <g id="patch_2">
     <path d="M 217.327022 110.03986 
L 228.712069 113.832051 
Q 230.989078 114.590489 231.747516 112.31348 
L 233.80162 106.14658 
Q 234.560058 103.86957 232.283049 103.111132 
L 220.898002 99.318941 
Q 218.620993 98.560503 217.862555 100.837512 
L 215.808451 107.004412 
Q 215.050013 109.281422 217.327022 110.03986 
z
" clip-path="url(#pd67947de79)" style="fill: #ffffff; stroke: #ffffff; stroke-linejoin: miter"/>
    </g>
    <g clip-path="url(#pd67947de79)">
     <!-- 200 -->
     <g transform="translate(218.401476 106.814097) rotate(-341.577845) scale(0.08 -0.08)">
      <defs>
       <path id="SimHei-32" d="M 300 250 
Q 325 625 650 925 
Q 975 1225 1475 1862 
Q 1975 2500 2125 2850 
Q 2275 3200 2237 3450 
Q 2200 3700 2000 3862 
Q 1800 4025 1537 4000 
Q 1275 3975 1037 3800 
Q 800 3625 675 3275 
L 200 3350 
Q 400 3925 712 4187 
Q 1025 4450 1450 4475 
Q 1700 4500 1900 4462 
Q 2100 4425 2312 4287 
Q 2525 4150 2662 3875 
Q 2800 3600 2762 3212 
Q 2725 2825 2375 2287 
Q 2025 1750 1025 600 
L 2825 600 
L 2825 150 
L 300 150 
L 300 250 
z
" transform="scale(0.015625)"/>
       <path id="SimHei-30" d="M 225 2537 
Q 250 3200 412 3587 
Q 575 3975 875 4225 
Q 1175 4475 1612 4475 
Q 2050 4475 2375 4112 
Q 2700 3750 2800 3200 
Q 2900 2650 2862 1937 
Q 2825 1225 2612 775 
Q 2400 325 1975 150 
Q 1550 -25 1125 187 
Q 700 400 525 750 
Q 350 1100 275 1487 
Q 200 1875 225 2537 
z
M 750 2687 
Q 675 2000 800 1462 
Q 925 925 1212 700 
Q 1500 475 1800 612 
Q 2100 750 2237 1162 
Q 2375 1575 2375 2062 
Q 2375 2550 2337 2950 
Q 2300 3350 2112 3675 
Q 1925 4000 1612 4012 
Q 1300 4025 1062 3700 
Q 825 3375 750 2687 
z
" transform="scale(0.015625)"/>
      </defs>
      <use xlink:href="#SimHei-32"/>
      <use xlink:href="#SimHei-30" x="50"/>
      <use xlink:href="#SimHei-30" x="100"/>
     </g>
    </g>
   </g>
   <g id="text_2">
    <g id="patch_3">
     <path d="M 443.388089 158.536778 
L 459.362924 159.433795 
Q 461.759149 159.568347 461.893702 157.172122 
L 462.258115 150.682345 
Q 462.392668 148.28612 459.996443 148.151567 
L 444.021607 147.25455 
Q 441.625382 147.119998 441.490829 149.516223 
L 441.126416 156.006 
Q 440.991864 158.402225 443.388089 158.536778 
z
" clip-path="url(#pd67947de79)" style="fill: #ffffff; stroke: #ffffff; stroke-linejoin: miter"/>
    </g>
    <g clip-path="url(#pd67947de79)">
     <!-- 1000 -->
     <g transform="translate(443.578705 155.142125) rotate(-356.786109) scale(0.08 -0.08)">
      <defs>
       <path id="SimHei-31" d="M 1400 3600 
Q 1075 3275 575 2975 
L 575 3450 
Q 1200 3875 1600 4450 
L 1900 4450 
L 1900 150 
L 1400 150 
L 1400 3600 
z
" transform="scale(0.015625)"/>
      </defs>
      <use xlink:href="#SimHei-31"/>
      <use xlink:href="#SimHei-30" x="50"/>
      <use xlink:href="#SimHei-30" x="100"/>
      <use xlink:href="#SimHei-30" x="150"/>
     </g>
    </g>
   </g>
   <g id="text_3">
    <g id="patch_4">
     <path d="M 366.971951 175.244369 
L 375.032971 189.065366 
Q 376.242123 191.138515 378.315273 189.929363 
L 383.930053 186.654574 
Q 386.003203 185.445421 384.79405 183.372271 
L 376.733031 169.551274 
Q 375.523878 167.478124 373.450728 168.687277 
L 367.835948 171.962066 
Q 365.762798 173.171219 366.971951 175.244369 
z
" clip-path="url(#pd67947de79)" style="fill: #ffffff; stroke: #ffffff; stroke-linejoin: miter"/>
    </g>
    <g clip-path="url(#pd67947de79)">
     <!-- 1000 -->
     <g transform="translate(369.908913 173.531402) rotate(-300.252635) scale(0.08 -0.08)">
      <use xlink:href="#SimHei-31"/>
      <use xlink:href="#SimHei-30" x="50"/>
      <use xlink:href="#SimHei-30" x="100"/>
      <use xlink:href="#SimHei-30" x="150"/>
     </g>
    </g>
   </g>
   <g id="text_4">
    <g id="patch_5">
     <path d="M 404.465277 263.207976 
L 407.643189 274.779531 
Q 408.278772 277.093842 410.593083 276.458259 
L 416.861008 274.73689 
Q 419.175319 274.101308 418.539737 271.786997 
L 415.361825 260.215443 
Q 414.726242 257.901132 412.411931 258.536714 
L 406.144006 260.258083 
Q 403.829695 260.893666 404.465277 263.207976 
z
" clip-path="url(#pd67947de79)" style="fill: #ffffff; stroke: #ffffff; stroke-linejoin: miter"/>
    </g>
    <g clip-path="url(#pd67947de79)">
     <!-- 500 -->
     <g transform="translate(407.743884 262.307568) rotate(-285.356614) scale(0.08 -0.08)">
      <defs>
       <path id="SimHei-35" d="M 550 1325 
Q 725 650 1150 575 
Q 1575 500 1837 662 
Q 2100 825 2212 1087 
Q 2325 1350 2312 1675 
Q 2300 2000 2137 2225 
Q 1975 2450 1725 2525 
Q 1475 2600 1162 2525 
Q 850 2450 650 2175 
L 225 2225 
Q 275 2375 700 4375 
L 2675 4375 
L 2675 3925 
L 1075 3925 
Q 950 3250 825 2850 
Q 1200 3025 1525 3012 
Q 1850 3000 2150 2862 
Q 2450 2725 2587 2487 
Q 2725 2250 2787 2012 
Q 2850 1775 2837 1500 
Q 2825 1225 2725 937 
Q 2625 650 2425 462 
Q 2225 275 1937 162 
Q 1650 50 1275 75 
Q 900 100 562 350 
Q 225 600 100 1200 
L 550 1325 
z
" transform="scale(0.015625)"/>
      </defs>
      <use xlink:href="#SimHei-35"/>
      <use xlink:href="#SimHei-30" x="50"/>
      <use xlink:href="#SimHei-30" x="100"/>
     </g>
    </g>
   </g>
   <g id="text_5">
    <g id="patch_6">
     <path d="M 467.03692 191.714313 
L 478.32392 187.639558 
Q 480.58132 186.824607 479.766369 184.567207 
L 477.55921 178.453415 
Q 476.744259 176.196015 474.486859 177.010966 
L 463.199859 181.085721 
Q 460.942459 181.900672 461.75741 184.158072 
L 463.964569 190.271864 
Q 464.77952 192.529264 467.03692 191.714313 
z
" clip-path="url(#pd67947de79)" style="fill: #ffffff; stroke: #ffffff; stroke-linejoin: miter"/>
    </g>
    <g clip-path="url(#pd67947de79)">
     <!-- 700 -->
     <g transform="translate(465.882406 188.51633) rotate(-19.850248) scale(0.08 -0.08)">
      <defs>
       <path id="SimHei-37" d="M 850 150 
Q 1300 2050 2425 3925 
L 275 3925 
L 275 4375 
L 2950 4375 
L 2950 3950 
Q 1775 2050 1400 150 
L 850 150 
z
" transform="scale(0.015625)"/>
      </defs>
      <use xlink:href="#SimHei-37"/>
      <use xlink:href="#SimHei-30" x="50"/>
      <use xlink:href="#SimHei-30" x="100"/>
     </g>
    </g>
   </g>
   <g id="text_6">
    <g id="patch_7">
     <path d="M 636.686119 165.486107 
L 652.683838 165.756283 
Q 655.083496 165.796809 655.124022 163.397151 
L 655.233781 156.898078 
Q 655.274307 154.49842 652.87465 154.457894 
L 636.876931 154.187718 
Q 634.477273 154.147192 634.436747 156.54685 
L 634.326988 163.045923 
Q 634.286462 165.445581 636.686119 165.486107 
z
" clip-path="url(#pd67947de79)" style="fill: #ffffff; stroke: #ffffff; stroke-linejoin: miter"/>
    </g>
    <g clip-path="url(#pd67947de79)">
     <!-- 1100 -->
     <g transform="translate(636.743532 162.086592) rotate(-359.032459) scale(0.08 -0.08)">
      <use xlink:href="#SimHei-31"/>
      <use xlink:href="#SimHei-31" x="50"/>
      <use xlink:href="#SimHei-30" x="100"/>
      <use xlink:href="#SimHei-30" x="150"/>
     </g>
    </g>
   </g>
   <g id="text_7">
    <g id="patch_8">
     <path d="M 789.13021 182.28091 
L 804.273592 187.445982 
Q 806.545099 188.220743 807.31986 185.949236 
L 809.418171 179.797237 
Q 810.192932 177.525729 807.921424 176.750968 
L 792.778042 171.585896 
Q 790.506535 170.811135 789.731774 173.082643 
L 787.633463 179.234642 
Q 786.858702 181.506149 789.13021 182.28091 
z
" clip-path="url(#pd67947de79)" style="fill: #ffffff; stroke: #ffffff; stroke-linejoin: miter"/>
    </g>
    <g clip-path="url(#pd67947de79)">
     <!-- 2400 -->
     <g transform="translate(790.227787 179.062941) rotate(-341.166628) scale(0.08 -0.08)">
      <defs>
       <path id="SimHei-34" d="M 2000 1100 
L 75 1100 
L 75 1525 
L 2100 4450 
L 2475 4450 
L 2475 1525 
L 3075 1525 
L 3075 1100 
L 2475 1100 
L 2475 150 
L 2000 150 
L 2000 1100 
z
M 2000 1525 
L 2000 3500 
L 600 1525 
L 2000 1525 
z
" transform="scale(0.015625)"/>
      </defs>
      <use xlink:href="#SimHei-32"/>
      <use xlink:href="#SimHei-34" x="50"/>
      <use xlink:href="#SimHei-30" x="100"/>
      <use xlink:href="#SimHei-30" x="150"/>
     </g>
    </g>
   </g>
   <g id="text_8">
    <g id="patch_9">
     <path d="M 797.056452 161.278697 
L 812.948132 159.420066 
Q 815.331884 159.141271 815.053089 156.757519 
L 814.29802 150.301524 
Q 814.019225 147.917772 811.635473 148.196567 
L 795.743794 150.055198 
Q 793.360042 150.333993 793.638836 152.717745 
L 794.393905 159.17374 
Q 794.6727 161.557492 797.056452 161.278697 
z
" clip-path="url(#pd67947de79)" style="fill: #ffffff; stroke: #ffffff; stroke-linejoin: miter"/>
    </g>
    <g clip-path="url(#pd67947de79)">
     <!-- 2100 -->
     <g transform="translate(796.661493 157.901715) rotate(-6.670793) scale(0.08 -0.08)">
      <use xlink:href="#SimHei-32"/>
      <use xlink:href="#SimHei-31" x="50"/>
      <use xlink:href="#SimHei-30" x="100"/>
      <use xlink:href="#SimHei-30" x="150"/>
     </g>
    </g>
   </g>
   <g id="text_9">
    <g id="patch_10">
     <path d="M 863.656869 181.745435 
L 867.136933 166.128484 
Q 867.658943 163.785942 865.3164 163.263932 
L 858.972014 161.850156 
Q 856.629471 161.328147 856.107462 163.670689 
L 852.627398 179.28764 
Q 852.105388 181.630183 854.447931 182.152192 
L 860.792317 183.565968 
Q 863.13486 184.087978 863.656869 181.745435 
z
" clip-path="url(#pd67947de79)" style="fill: #ffffff; stroke: #ffffff; stroke-linejoin: miter"/>
    </g>
    <g clip-path="url(#pd67947de79)">
     <!-- 1100 -->
     <g transform="translate(860.338267 181.005922) rotate(-77.437527) scale(0.08 -0.08)">
      <use xlink:href="#SimHei-31"/>
      <use xlink:href="#SimHei-31" x="50"/>
      <use xlink:href="#SimHei-30" x="100"/>
      <use xlink:href="#SimHei-30" x="150"/>
     </g>
    </g>
   </g>
   <g id="text_10">
    <g id="patch_11">
     <path d="M 871.554876 225.328876 
L 881.875646 237.555147 
Q 883.423761 239.389088 885.257702 237.840972 
L 890.224625 233.648159 
Q 892.058565 232.100044 890.51045 230.266103 
L 880.18968 218.039832 
Q 878.641564 216.205892 876.807623 217.754007 
L 871.840701 221.94682 
Q 870.00676 223.494935 871.554876 225.328876 
z
" clip-path="url(#pd67947de79)" style="fill: #ffffff; stroke: #ffffff; stroke-linejoin: miter"/>
    </g>
    <g clip-path="url(#pd67947de79)">
     <!-- 1500 -->
     <g transform="translate(874.152958 223.135712) rotate(-310.169284) scale(0.08 -0.08)">
      <use xlink:href="#SimHei-31"/>
      <use xlink:href="#SimHei-35" x="50"/>
      <use xlink:href="#SimHei-30" x="100"/>
      <use xlink:href="#SimHei-30" x="150"/>
     </g>
    </g>
   </g>
   <g id="text_11">
    <g id="patch_12">
     <path d="M 908.618155 326.586495 
L 909.459519 314.616027 
Q 909.627792 312.221933 907.233698 312.053661 
L 900.749695 311.597922 
Q 898.355601 311.429649 898.187328 313.823743 
L 897.345965 325.794211 
Q 897.177692 328.188305 899.571785 328.356577 
L 906.055789 328.812316 
Q 908.449883 328.980589 908.618155 326.586495 
z
" clip-path="url(#pd67947de79)" style="fill: #ffffff; stroke: #ffffff; stroke-linejoin: miter"/>
    </g>
    <g clip-path="url(#pd67947de79)">
     <!-- 400 -->
     <g transform="translate(905.226523 326.348109) rotate(-85.979485) scale(0.08 -0.08)">
      <use xlink:href="#SimHei-34"/>
      <use xlink:href="#SimHei-30" x="50"/>
      <use xlink:href="#SimHei-30" x="100"/>
     </g>
    </g>
   </g>
   <g id="text_12">
    <g id="patch_13">
     <path d="M 853.384651 418.490575 
L 866.623873 409.505976 
Q 868.609756 408.158287 867.262066 406.172403 
L 863.612073 400.79397 
Q 862.264383 398.808087 860.2785 400.155776 
L 847.039278 409.140375 
Q 845.053395 410.488065 846.401085 412.473948 
L 850.051078 417.852382 
Q 851.398768 419.838265 853.384651 418.490575 
z
" clip-path="url(#pd67947de79)" style="fill: #ffffff; stroke: #ffffff; stroke-linejoin: miter"/>
    </g>
    <g clip-path="url(#pd67947de79)">
     <!-- 1600 -->
     <g transform="translate(851.475424 415.677241) rotate(-34.162188) scale(0.08 -0.08)">
      <defs>
       <path id="SimHei-36" d="M 250 1612 
Q 275 1975 387 2225 
Q 500 2475 725 2850 
L 1750 4450 
L 2325 4450 
L 1275 2800 
Q 1950 2975 2350 2750 
Q 2750 2525 2887 2237 
Q 3025 1950 3037 1612 
Q 3050 1275 2937 950 
Q 2825 625 2537 362 
Q 2250 100 1737 75 
Q 1225 50 862 262 
Q 500 475 362 862 
Q 225 1250 250 1612 
z
M 1025 787 
Q 1250 550 1625 525 
Q 2000 500 2250 775 
Q 2500 1050 2500 1575 
Q 2500 2100 2187 2300 
Q 1875 2500 1487 2450 
Q 1100 2400 925 2075 
Q 750 1750 775 1387 
Q 800 1025 1025 787 
z
" transform="scale(0.015625)"/>
      </defs>
      <use xlink:href="#SimHei-31"/>
      <use xlink:href="#SimHei-36" x="50"/>
      <use xlink:href="#SimHei-30" x="100"/>
      <use xlink:href="#SimHei-30" x="150"/>
     </g>
    </g>
   </g>
   <g id="text_13">
    <g id="patch_14">
     <path d="M 731.025768 449.029846 
L 746.964511 447.6311 
Q 749.355322 447.421288 749.14551 445.030477 
L 748.57727 438.555363 
Q 748.367458 436.164551 745.976646 436.374363 
L 730.037904 437.77311 
Q 727.647093 437.982922 727.856904 440.373733 
L 728.425145 446.848847 
Q 728.634957 449.239658 731.025768 449.029846 
z
" clip-path="url(#pd67947de79)" style="fill: #ffffff; stroke: #ffffff; stroke-linejoin: miter"/>
    </g>
    <g clip-path="url(#pd67947de79)">
     <!-- 1700 -->
     <g transform="translate(730.728535 445.642864) rotate(-5.015293) scale(0.08 -0.08)">
      <use xlink:href="#SimHei-31"/>
      <use xlink:href="#SimHei-37" x="50"/>
      <use xlink:href="#SimHei-30" x="100"/>
      <use xlink:href="#SimHei-30" x="150"/>
     </g>
    </g>
   </g>
   <g id="text_14">
    <g id="patch_15">
     <path d="M 610.95068 443.30016 
L 626.523389 446.973135 
Q 628.859295 447.524081 629.410242 445.188175 
L 630.902388 438.861762 
Q 631.453334 436.525855 629.117428 435.974909 
L 613.544719 432.301934 
Q 611.208813 431.750988 610.657866 434.086894 
L 609.16572 440.413307 
Q 608.614774 442.749213 610.95068 443.30016 
z
" clip-path="url(#pd67947de79)" style="fill: #ffffff; stroke: #ffffff; stroke-linejoin: miter"/>
    </g>
    <g clip-path="url(#pd67947de79)">
     <!-- 3800 -->
     <g transform="translate(611.731188 439.990959) rotate(-346.728777) scale(0.08 -0.08)">
      <defs>
       <path id="SimHei-33" d="M 250 1225 
L 700 1300 
Q 800 975 1025 762 
Q 1250 550 1587 562 
Q 1925 575 2125 837 
Q 2325 1100 2300 1437 
Q 2275 1775 2037 1962 
Q 1800 2150 1275 2225 
L 1275 2550 
Q 1800 2600 2037 2825 
Q 2275 3050 2250 3412 
Q 2225 3775 1925 3937 
Q 1625 4100 1287 3975 
Q 950 3850 750 3275 
L 300 3350 
Q 450 3800 712 4100 
Q 975 4400 1425 4450 
Q 1875 4500 2212 4337 
Q 2550 4175 2687 3837 
Q 2825 3500 2725 3100 
Q 2625 2700 2150 2400 
Q 2500 2250 2687 1950 
Q 2875 1650 2812 1162 
Q 2750 675 2375 375 
Q 2000 75 1525 87 
Q 1050 100 700 387 
Q 350 675 250 1225 
z
" transform="scale(0.015625)"/>
       <path id="SimHei-38" d="M 175 1375 
Q 175 1675 325 1962 
Q 475 2250 825 2425 
Q 525 2600 425 2812 
Q 325 3025 312 3300 
Q 300 3575 387 3775 
Q 475 3975 650 4150 
Q 825 4325 1037 4387 
Q 1250 4450 1500 4450 
Q 1750 4450 1950 4400 
Q 2150 4350 2375 4187 
Q 2600 4025 2700 3725 
Q 2800 3425 2687 3025 
Q 2575 2625 2100 2400 
Q 2525 2275 2700 2012 
Q 2875 1750 2875 1375 
Q 2875 1000 2762 775 
Q 2650 550 2512 400 
Q 2375 250 2137 162 
Q 1900 75 1537 75 
Q 1175 75 912 162 
Q 650 250 475 425 
Q 300 600 237 837 
Q 175 1075 175 1375 
z
M 687 1400 
Q 675 1100 787 875 
Q 900 650 1200 587 
Q 1500 525 1825 600 
Q 2150 675 2275 950 
Q 2400 1225 2362 1500 
Q 2325 1775 2050 1962 
Q 1775 2150 1450 2125 
Q 1125 2100 912 1900 
Q 700 1700 687 1400 
z
M 775 3350 
Q 775 3100 950 2875 
Q 1125 2650 1500 2650 
Q 1875 2650 2062 2875 
Q 2250 3100 2237 3412 
Q 2225 3725 2012 3875 
Q 1800 4025 1437 4000 
Q 1075 3975 925 3787 
Q 775 3600 775 3350 
z
" transform="scale(0.015625)"/>
      </defs>
      <use xlink:href="#SimHei-33"/>
      <use xlink:href="#SimHei-38" x="50"/>
      <use xlink:href="#SimHei-30" x="100"/>
      <use xlink:href="#SimHei-30" x="150"/>
     </g>
    </g>
   </g>
   <g id="text_15">
    <g id="patch_16">
     <path d="M 494.804166 378.402273 
L 504.439565 385.554831 
Q 506.366645 386.985342 507.797157 385.058262 
L 511.671459 379.839088 
Q 513.10197 377.912008 511.17489 376.481496 
L 501.539491 369.328939 
Q 499.612411 367.898427 498.1819 369.825507 
L 494.307597 375.044682 
Q 492.877086 376.971762 494.804166 378.402273 
z
" clip-path="url(#pd67947de79)" style="fill: #ffffff; stroke: #ffffff; stroke-linejoin: miter"/>
    </g>
    <g clip-path="url(#pd67947de79)">
     <!-- 400 -->
     <g transform="translate(496.830724 375.672243) rotate(-323.412732) scale(0.08 -0.08)">
      <use xlink:href="#SimHei-34"/>
      <use xlink:href="#SimHei-30" x="50"/>
      <use xlink:href="#SimHei-30" x="100"/>
     </g>
    </g>
   </g>
   <g id="PathCollection_1">
    <path d="M 92.796694 80.672527 
C 96.989923 80.672527 101.011973 79.00654 103.977034 76.041479 
C 106.942095 73.076418 108.608083 69.054368 108.608083 64.861139 
C 108.608083 60.66791 106.942095 56.64586 103.977034 53.680799 
C 101.011973 50.715738 96.989923 49.049751 92.796694 49.049751 
C 88.603465 49.049751 84.581415 50.715738 81.616354 53.680799 
C 78.651294 56.64586 76.985306 60.66791 76.985306 64.861139 
C 76.985306 69.054368 78.651294 73.076418 81.616354 76.041479 
C 84.581415 79.00654 88.603465 80.672527 92.796694 80.672527 
z
" clip-path="url(#pd67947de79)" style="fill: #d3d3d3; stroke: #d3d3d3"/>
    <path d="M 356.813377 164.101241 
C 361.006606 164.101241 365.028656 162.435254 367.993716 159.470193 
C 370.958777 156.505132 372.624765 152.483082 372.624765 148.289853 
C 372.624765 144.096624 370.958777 140.074574 367.993716 137.109513 
C 365.028656 134.144452 361.006606 132.478465 356.813377 132.478465 
C 352.620147 132.478465 348.598097 134.144452 345.633037 137.109513 
C 342.667976 140.074574 341.001988 144.096624 341.001988 148.289853 
C 341.001988 152.483082 342.667976 156.505132 345.633037 159.470193 
C 348.598097 162.435254 352.620147 164.101241 356.813377 164.101241 
z
" clip-path="url(#pd67947de79)" style="fill: #ff0000; stroke: #ff0000"/>
    <path d="M 394.952625 226.138175 
C 399.145854 226.138175 403.167904 224.472187 406.132965 221.507126 
C 409.098025 218.542066 410.764013 214.520016 410.764013 210.326787 
C 410.764013 206.133557 409.098025 202.111507 406.132965 199.146447 
C 403.167904 196.181386 399.145854 194.515398 394.952625 194.515398 
C 390.759395 194.515398 386.737346 196.181386 383.772285 199.146447 
C 380.807224 202.111507 379.141236 206.133557 379.141236 210.326787 
C 379.141236 214.520016 380.807224 218.542066 383.772285 221.507126 
C 386.737346 224.472187 390.759395 226.138175 394.952625 226.138175 
z
" clip-path="url(#pd67947de79)" style="fill: #ff0000; stroke: #ff0000"/>
    <path d="M 546.571155 172.091556 
C 550.202598 172.091556 553.685795 170.648769 556.253613 168.080951 
C 558.821431 165.513133 560.264219 162.029935 560.264219 158.398492 
C 560.264219 154.767049 558.821431 151.283852 556.253613 148.716034 
C 553.685795 146.148216 550.202598 144.705428 546.571155 144.705428 
C 542.939712 144.705428 539.456514 146.148216 536.888697 148.716034 
C 534.320879 151.283852 532.878091 154.767049 532.878091 158.398492 
C 532.878091 162.029935 534.320879 165.513133 536.888697 168.080951 
C 539.456514 170.648769 542.939712 172.091556 546.571155 172.091556 
z
" clip-path="url(#pd67947de79)" style="fill: #ffff00; stroke: #ffff00"/>
    <path d="M 742.989614 173.271548 
C 746.099396 173.271548 749.082228 172.036019 751.281176 169.837071 
C 753.480124 167.638123 754.715654 164.655291 754.715654 161.545509 
C 754.715654 158.435727 753.480124 155.452895 751.281176 153.253947 
C 749.082228 151.054999 746.099396 149.819469 742.989614 149.819469 
C 739.879832 149.819469 736.897 151.054999 734.698052 153.253947 
C 732.499104 155.452895 731.263575 158.435727 731.263575 161.545509 
C 731.263575 164.655291 732.499104 167.638123 734.698052 169.837071 
C 736.897 172.036019 739.879832 173.271548 742.989614 173.271548 
z
" clip-path="url(#pd67947de79)" style="fill: #0000ff; stroke: #0000ff"/>
    <path d="M 865.702311 163.741143 
C 869.89554 163.741143 873.91759 162.075156 876.882651 159.110095 
C 879.847712 156.145034 881.513699 152.122984 881.513699 147.929755 
C 881.513699 143.736526 879.847712 139.714476 876.882651 136.749415 
C 873.91759 133.784355 869.89554 132.118367 865.702311 132.118367 
C 861.509082 132.118367 857.487032 133.784355 854.521971 136.749415 
C 851.55691 139.714476 849.890923 143.736526 849.890923 147.929755 
C 849.890923 152.122984 851.55691 156.145034 854.521971 159.110095 
C 857.487032 162.075156 861.509082 163.741143 865.702311 163.741143 
z
" clip-path="url(#pd67947de79)" style="fill: #d3d3d3; stroke: #d3d3d3"/>
    <path d="M 854.06202 212.063749 
C 857.927986 212.063749 861.636133 210.527784 864.369784 207.794133 
C 867.103435 205.060482 868.639399 201.352336 868.639399 197.486369 
C 868.639399 193.620403 867.103435 189.912256 864.369784 187.178605 
C 861.636133 184.444954 857.927986 182.90899 854.06202 182.90899 
C 850.196053 182.90899 846.487907 184.444954 843.754256 187.178605 
C 841.020605 189.912256 839.48464 193.620403 839.48464 197.486369 
C 839.48464 201.352336 841.020605 205.060482 843.754256 207.794133 
C 846.487907 210.527784 850.196053 212.063749 854.06202 212.063749 
z
" clip-path="url(#pd67947de79)" style="fill: #ffa500; stroke: #ffa500"/>
    <path d="M 908.003306 272.68599 
C 911.869272 272.68599 915.577419 271.150025 918.31107 268.416374 
C 921.044721 265.682723 922.580686 261.974576 922.580686 258.10861 
C 922.580686 254.242644 921.044721 250.534497 918.31107 247.800846 
C 915.577419 245.067195 911.869272 243.53123 908.003306 243.53123 
C 904.137339 243.53123 900.429193 245.067195 897.695542 247.800846 
C 894.961891 250.534497 893.425926 254.242644 893.425926 258.10861 
C 893.425926 261.974576 894.961891 265.682723 897.695542 268.416374 
C 900.429193 271.150025 904.137339 272.68599 908.003306 272.68599 
z
" clip-path="url(#pd67947de79)" style="fill: #ffa500; stroke: #ffa500"/>
    <path d="M 898.802178 396.879008 
C 902.668144 396.879008 906.376291 395.343043 909.109942 392.609392 
C 911.843593 389.875741 913.379558 386.167594 913.379558 382.301628 
C 913.379558 378.435662 911.843593 374.727515 909.109942 371.993864 
C 906.376291 369.260213 902.668144 367.724248 898.802178 367.724248 
C 894.936212 367.724248 891.228065 369.260213 888.494414 371.993864 
C 885.760763 374.727515 884.224798 378.435662 884.224798 382.301628 
C 884.224798 386.167594 885.760763 389.875741 888.494414 392.609392 
C 891.228065 395.343043 894.936212 396.879008 898.802178 396.879008 
z
" clip-path="url(#pd67947de79)" style="fill: #ffa500; stroke: #ffa500"/>
    <path d="M 814.860973 448.070763 
C 817.970755 448.070763 820.953587 446.835234 823.152535 444.636286 
C 825.351483 442.437338 826.587013 439.454506 826.587013 436.344724 
C 826.587013 433.234942 825.351483 430.25211 823.152535 428.053162 
C 820.953587 425.854214 817.970755 424.618684 814.860973 424.618684 
C 811.751191 424.618684 808.768359 425.854214 806.569411 428.053162 
C 804.370463 430.25211 803.134934 433.234942 803.134934 436.344724 
C 803.134934 439.454506 804.370463 442.437338 806.569411 444.636286 
C 808.768359 446.835234 811.751191 448.070763 814.860973 448.070763 
z
" clip-path="url(#pd67947de79)" style="fill: #0000ff; stroke: #0000ff"/>
    <path d="M 662.141441 460.785525 
C 665.251223 460.785525 668.234055 459.549996 670.433003 457.351048 
C 672.631951 455.1521 673.867481 452.169268 673.867481 449.059486 
C 673.867481 445.949704 672.631951 442.966872 670.433003 440.767924 
C 668.234055 438.568976 665.251223 437.333447 662.141441 437.333447 
C 659.031659 437.333447 656.048827 438.568976 653.849879 440.767924 
C 651.650931 442.966872 650.415402 445.949704 650.415402 449.059486 
C 650.415402 452.169268 651.650931 455.1521 653.849879 457.351048 
C 656.048827 459.549996 659.031659 460.785525 662.141441 460.785525 
z
" clip-path="url(#pd67947de79)" style="fill: #0000ff; stroke: #0000ff"/>
    <path d="M 577.926667 442.963131 
C 581.307356 442.963131 584.550036 441.619969 586.940545 439.229461 
C 589.331053 436.838952 590.674215 433.596272 590.674215 430.215583 
C 590.674215 426.834893 589.331053 423.592213 586.940545 421.201704 
C 584.550036 418.811196 581.307356 417.468034 577.926667 417.468034 
C 574.545977 417.468034 571.303297 418.811196 568.912789 421.201704 
C 566.52228 423.592213 565.179118 426.834893 565.179118 430.215583 
C 565.179118 433.596272 566.52228 436.838952 568.912789 439.229461 
C 571.303297 441.619969 574.545977 442.963131 577.926667 442.963131 
z
" clip-path="url(#pd67947de79)" style="fill: #008000; stroke: #008000"/>
    <path d="M 428.052389 340.479575 
C 432.245619 340.479575 436.267668 338.813588 439.232729 335.848527 
C 442.19779 332.883466 443.863778 328.861416 443.863778 324.668187 
C 443.863778 320.474958 442.19779 316.452908 439.232729 313.487847 
C 436.267668 310.522786 432.245619 308.856799 428.052389 308.856799 
C 423.85916 308.856799 419.83711 310.522786 416.872049 313.487847 
C 413.906989 316.452908 412.241001 320.474958 412.241001 324.668187 
C 412.241001 328.861416 413.906989 332.883466 416.872049 335.848527 
C 419.83711 338.813588 423.85916 340.479575 428.052389 340.479575 
z
" clip-path="url(#pd67947de79)" style="fill: #ff0000; stroke: #ff0000"/>
   </g>
   <g id="text_16">
    <g clip-path="url(#pd67947de79)">
     <!-- 西北门 -->
     <g transform="translate(79.296694 67.866998) scale(0.09 -0.09)">
      <defs>
       <path id="SimHei-897f" d="M 5150 4750 
Q 5525 4750 5950 4775 
L 5950 4350 
Q 5675 4375 5150 4375 
L 4025 4375 
L 4025 3350 
L 5450 3350 
Q 5425 2950 5425 2375 
L 5425 425 
Q 5425 0 5450 -550 
L 5000 -550 
L 5000 -50 
L 1450 -50 
L 1450 -575 
L 975 -575 
Q 1000 175 1000 550 
L 1000 2375 
Q 1000 2875 975 3350 
L 2375 3350 
L 2375 4375 
L 1425 4375 
Q 975 4375 450 4350 
L 450 4775 
Q 975 4750 1400 4750 
L 5150 4750 
z
M 5000 325 
L 5000 2950 
L 4025 2950 
L 4025 1975 
Q 4000 1675 4100 1625 
Q 4200 1575 4875 1650 
Q 4825 1375 4800 1125 
Q 3975 1075 3775 1187 
Q 3575 1300 3600 1700 
L 3600 2950 
L 2800 2950 
Q 2750 2125 2525 1650 
Q 2300 1175 2000 875 
Q 1850 1050 1575 1175 
Q 1950 1475 2150 1912 
Q 2350 2350 2375 2950 
L 1450 2950 
L 1450 325 
L 5000 325 
z
M 3600 3350 
L 3600 4375 
L 2800 4375 
L 2800 3350 
L 3600 3350 
z
" transform="scale(0.015625)"/>
       <path id="SimHei-5317" d="M 4100 5025 
Q 4075 4775 4075 4525 
L 4075 2825 
Q 4950 3225 5600 3800 
Q 5750 3550 6000 3325 
Q 5725 3200 5125 2887 
Q 4525 2575 4075 2375 
L 4075 500 
Q 4075 100 4450 75 
L 5075 75 
Q 5325 50 5425 162 
Q 5525 275 5625 800 
Q 5825 600 6200 550 
Q 6000 25 5837 -162 
Q 5675 -350 5375 -350 
L 4275 -350 
Q 3575 -350 3600 400 
L 3600 4525 
Q 3600 4775 3575 5025 
L 4100 5025 
z
M 2175 3225 
L 2175 4500 
Q 2175 4700 2150 5025 
L 2675 5025 
Q 2650 4700 2650 4475 
L 2650 300 
Q 2650 25 2675 -475 
L 2150 -475 
Q 2175 25 2175 475 
Q 1650 350 1225 212 
Q 800 75 600 -50 
Q 475 225 300 500 
Q 575 525 1200 675 
Q 1825 825 2175 925 
L 2175 2800 
L 1275 2800 
Q 975 2800 600 2775 
L 600 3250 
Q 975 3225 1275 3225 
L 2175 3225 
z
" transform="scale(0.015625)"/>
       <path id="SimHei-95e8" d="M 5800 4825 
Q 5775 4325 5775 3850 
L 5775 375 
Q 5775 -225 5450 -325 
Q 5125 -425 4675 -475 
Q 4625 -200 4450 100 
Q 4950 100 5100 162 
Q 5250 225 5250 475 
L 5250 4400 
L 3775 4400 
Q 3175 4400 2700 4325 
L 2700 4850 
Q 3575 4825 3775 4825 
L 5800 4825 
z
M 1175 3875 
Q 1150 3500 1150 3200 
L 1150 -450 
L 600 -450 
Q 625 25 625 450 
L 625 3075 
Q 625 3500 600 3875 
L 1175 3875 
z
M 1525 5300 
Q 1825 4825 2150 4375 
Q 1925 4225 1650 4075 
Q 1350 4550 1025 5000 
Q 1300 5150 1525 5300 
z
" transform="scale(0.015625)"/>
      </defs>
      <use xlink:href="#SimHei-897f"/>
      <use xlink:href="#SimHei-5317" x="100"/>
      <use xlink:href="#SimHei-95e8" x="200"/>
     </g>
    </g>
   </g>
   <g id="text_17">
    <g clip-path="url(#pd67947de79)">
     <!-- 净月广场 -->
     <g transform="translate(338.813377 151.348447) scale(0.09 -0.09)">
      <defs>
       <path id="SimHei-51c0" d="M 3425 5075 
Q 3275 4900 3100 4625 
L 4950 4625 
Q 4725 4325 4250 3475 
L 5525 3475 
Q 5500 3150 5500 2450 
Q 5825 2450 6150 2475 
L 6150 2025 
Q 5825 2050 5500 2050 
Q 5500 1075 5525 1000 
L 3875 1000 
L 3875 -75 
Q 3875 -375 3625 -475 
Q 3375 -575 2775 -650 
Q 2725 -350 2575 -75 
Q 2975 -75 3175 -62 
Q 3375 -50 3375 200 
L 3375 1000 
L 2725 1000 
Q 2325 1000 1900 975 
L 1900 1425 
Q 2325 1400 2725 1400 
L 3375 1400 
L 3375 2050 
L 2625 2050 
Q 2225 2050 1700 2025 
L 1700 2475 
Q 2225 2450 2675 2450 
L 3375 2450 
L 3375 3075 
L 3000 3075 
Q 2675 3075 2250 3050 
L 2250 3425 
Q 2100 3225 1900 3000 
Q 1700 3175 1475 3300 
Q 1725 3525 2187 4150 
Q 2650 4775 2825 5300 
Q 3075 5200 3425 5075 
z
M 1625 2025 
Q 1000 775 675 100 
Q 500 275 225 450 
Q 525 875 800 1450 
Q 1075 2025 1175 2325 
Q 1400 2150 1625 2025 
z
M 2325 3500 
Q 2850 3475 3325 3475 
L 3700 3475 
Q 3900 3825 4100 4225 
L 2850 4225 
Q 2550 3775 2325 3500 
z
M 5000 1400 
L 5000 2050 
L 3875 2050 
L 3875 1400 
L 5000 1400 
z
M 700 4750 
Q 1275 4150 1600 3725 
Q 1325 3550 1175 3375 
Q 900 3775 300 4425 
Q 500 4575 700 4750 
z
M 5000 2450 
L 5000 3075 
L 3875 3075 
L 3875 2450 
L 5000 2450 
z
" transform="scale(0.015625)"/>
       <path id="SimHei-6708" d="M 5250 4825 
Q 5200 4225 5200 3750 
L 5200 200 
Q 5200 -275 4950 -375 
Q 4700 -475 3975 -525 
Q 3925 -225 3750 50 
Q 4300 25 4512 50 
Q 4725 75 4725 400 
L 4725 1600 
L 1850 1600 
Q 1725 775 1450 225 
Q 1175 -325 900 -575 
Q 700 -400 400 -325 
Q 800 25 1037 512 
Q 1275 1000 1337 1475 
Q 1400 1950 1400 2525 
L 1400 3625 
Q 1400 4175 1375 4825 
L 5250 4825 
z
M 4725 3400 
L 4725 4450 
L 1875 4450 
L 1875 3400 
L 4725 3400 
z
M 4725 2000 
L 4725 3025 
L 1875 3025 
L 1875 2000 
L 4725 2000 
z
" transform="scale(0.015625)"/>
       <path id="SimHei-5e7f" d="M 6000 3650 
Q 5500 3675 5075 3675 
L 1500 3675 
Q 1550 2025 1487 1375 
Q 1425 725 1250 275 
Q 1075 -175 775 -625 
Q 550 -425 225 -275 
Q 525 50 750 550 
Q 975 1050 1000 2012 
Q 1025 2975 950 4125 
L 5025 4125 
Q 5500 4125 6000 4150 
L 6000 3650 
z
M 3275 4150 
Q 3125 4700 2875 5075 
Q 3100 5150 3350 5300 
Q 3575 4925 3825 4400 
Q 3625 4350 3275 4150 
z
" transform="scale(0.015625)"/>
       <path id="SimHei-573a" d="M 5625 5000 
L 5625 4600 
Q 5275 4525 4862 4150 
Q 4450 3775 3750 3100 
L 6000 3100 
Q 5975 2925 5950 2300 
L 5850 425 
Q 5825 -200 5587 -350 
Q 5350 -500 4750 -550 
Q 4700 -250 4525 50 
Q 5050 0 5200 75 
Q 5350 150 5375 400 
L 5475 2675 
L 5000 2675 
Q 4875 1925 4700 1425 
Q 4525 925 4287 562 
Q 4050 200 3750 -62 
Q 3450 -325 3000 -600 
Q 2875 -350 2650 -175 
Q 3075 50 3425 350 
Q 3775 650 4000 1050 
Q 4225 1450 4337 1900 
Q 4450 2350 4500 2675 
L 4000 2675 
Q 3950 2300 3787 1912 
Q 3625 1525 3325 1150 
Q 3025 775 2550 425 
Q 2450 600 2175 800 
Q 2775 1125 3112 1675 
Q 3450 2225 3500 2675 
Q 3225 2650 3125 2625 
Q 3025 2600 2800 2525 
Q 2725 2825 2650 3025 
Q 3075 3075 3637 3587 
Q 4200 4100 4650 4575 
L 3700 4575 
Q 3150 4575 2675 4550 
L 2675 5025 
Q 3125 5000 3675 5000 
L 5625 5000 
z
M 1200 4375 
Q 1200 4650 1175 5075 
L 1700 5075 
Q 1675 4625 1675 4375 
L 1675 3450 
Q 2050 3450 2450 3475 
L 2450 3025 
Q 2000 3050 1675 3050 
L 1675 1225 
Q 1950 1325 2500 1575 
Q 2500 1350 2525 1125 
Q 2100 925 1500 687 
Q 900 450 500 225 
Q 400 450 200 725 
Q 650 850 1200 1050 
L 1200 3050 
Q 650 3050 325 3025 
L 325 3475 
Q 750 3450 1200 3450 
L 1200 4375 
z
" transform="scale(0.015625)"/>
      </defs>
      <use xlink:href="#SimHei-51c0"/>
      <use xlink:href="#SimHei-6708" x="100"/>
      <use xlink:href="#SimHei-5e7f" x="200"/>
      <use xlink:href="#SimHei-573a" x="300"/>
     </g>
    </g>
   </g>
   <g id="text_18">
    <g clip-path="url(#pd67947de79)">
     <!-- 荷花垂柳园 -->
     <g transform="translate(372.452625 213.279912) scale(0.09 -0.09)">
      <defs>
       <path id="SimHei-8377" d="M 2600 4225 
Q 2600 4000 2625 3700 
L 2125 3700 
Q 2150 4000 2150 4225 
L 1225 4225 
Q 775 4225 300 4175 
L 300 4650 
Q 750 4625 1175 4625 
L 2150 4625 
Q 2150 4900 2125 5175 
L 2625 5175 
Q 2600 4900 2600 4625 
L 3850 4625 
Q 3850 4850 3825 5175 
L 4325 5175 
Q 4300 4850 4300 4625 
L 5200 4625 
Q 5575 4625 6075 4650 
L 6075 4200 
Q 5600 4225 5250 4225 
L 4300 4225 
Q 4300 3975 4325 3625 
L 3825 3625 
Q 3850 3950 3850 4225 
L 2600 4225 
z
M 5250 3275 
Q 5725 3275 6125 3300 
L 6125 2850 
Q 5775 2875 5375 2875 
L 5375 -50 
Q 5375 -325 5200 -425 
Q 5025 -525 4475 -600 
Q 4450 -350 4225 -50 
Q 4600 -75 4762 -62 
Q 4925 -50 4925 125 
L 4925 2875 
L 3175 2875 
Q 2750 2875 2300 2850 
L 2300 3300 
Q 2750 3275 3175 3275 
L 5250 3275 
z
M 4300 2225 
Q 4275 1925 4275 1300 
Q 4275 700 4300 425 
L 2500 425 
Q 2525 700 2525 1325 
Q 2525 1950 2500 2225 
L 4300 2225 
z
M 2275 3450 
Q 2150 3350 2037 3212 
Q 1925 3075 1775 2875 
L 1775 325 
Q 1775 -175 1800 -575 
L 1300 -575 
Q 1325 -150 1325 325 
L 1325 2225 
Q 950 1725 600 1400 
Q 425 1625 200 1800 
Q 650 2125 1175 2825 
Q 1700 3525 1750 3775 
Q 2000 3600 2275 3450 
z
M 3850 850 
L 3850 1825 
L 2975 1825 
L 2975 850 
L 3850 850 
z
" transform="scale(0.015625)"/>
       <path id="SimHei-82b1" d="M 3950 3275 
Q 3925 2975 3925 2550 
L 3925 1850 
Q 4200 2000 4587 2362 
Q 4975 2725 5150 3000 
Q 5375 2800 5700 2650 
Q 5400 2475 5100 2187 
Q 4800 1900 3925 1300 
L 3925 275 
Q 3925 0 4250 0 
L 5025 0 
Q 5275 0 5375 112 
Q 5475 225 5550 675 
Q 5800 500 6075 450 
Q 5900 -150 5737 -275 
Q 5575 -400 5250 -400 
L 4025 -400 
Q 3450 -400 3450 0 
L 3450 1025 
Q 3200 875 2575 550 
Q 2450 775 2225 975 
Q 2750 1125 3450 1550 
L 3450 2550 
Q 3450 2975 3425 3275 
L 3950 3275 
z
M 2450 4025 
Q 2450 3750 2475 3450 
L 1925 3450 
Q 1950 3750 1950 4025 
L 1250 4025 
Q 825 4025 400 4000 
L 400 4450 
Q 825 4425 1250 4425 
L 1950 4425 
Q 1950 4825 1925 5125 
L 2500 5125 
Q 2450 4825 2450 4425 
L 3725 4425 
L 3725 5175 
L 4250 5175 
Q 4225 4875 4225 4425 
L 5225 4425 
Q 5675 4425 6000 4450 
L 6000 4000 
Q 5675 4025 5225 4025 
L 4225 4025 
Q 4225 3800 4250 3450 
L 3725 3450 
L 3725 4025 
L 2450 4025 
z
M 2650 3075 
Q 2350 2875 2000 2500 
L 2000 325 
Q 2000 -75 2025 -575 
L 1500 -575 
Q 1525 -100 1525 325 
L 1525 2025 
Q 1100 1625 600 1275 
Q 475 1500 300 1700 
Q 725 1925 1312 2487 
Q 1900 3050 2050 3375 
Q 2275 3200 2650 3075 
z
" transform="scale(0.015625)"/>
       <path id="SimHei-5782" d="M 4975 5050 
Q 5100 4800 5275 4550 
Q 4650 4550 3450 4400 
L 3450 3700 
L 4850 3700 
Q 5250 3700 5725 3725 
L 5725 3275 
Q 5250 3300 4900 3300 
L 4900 2450 
Q 5550 2450 6050 2475 
L 6050 2025 
Q 5550 2050 4900 2050 
L 4900 1175 
L 4925 1175 
Q 5250 1175 5725 1200 
L 5725 725 
L 5250 750 
L 3450 750 
L 3450 0 
L 4625 0 
Q 4925 0 5400 25 
L 5400 -400 
Q 4950 -375 4650 -375 
L 1850 -375 
Q 1400 -375 1025 -400 
L 1025 25 
Q 1425 0 1850 0 
L 2975 0 
L 2975 750 
L 1550 750 
Q 1100 750 700 725 
L 700 1200 
Q 1100 1175 1475 1175 
L 1575 1175 
L 1575 2050 
Q 750 2050 300 2025 
L 300 2475 
Q 625 2450 1575 2450 
L 1575 3300 
L 1475 3300 
Q 1075 3300 675 3275 
L 675 3725 
Q 1100 3700 1475 3700 
L 2975 3700 
L 2975 4350 
Q 1575 4275 1125 4250 
Q 1100 4425 900 4700 
Q 1525 4675 2125 4700 
Q 2725 4725 3250 4775 
Q 3775 4825 4237 4900 
Q 4700 4975 4975 5050 
z
M 4425 1175 
L 4425 2050 
L 3450 2050 
L 3450 1175 
L 4425 1175 
z
M 4425 2450 
L 4425 3300 
L 3450 3300 
L 3450 2450 
L 4425 2450 
z
M 2975 1175 
L 2975 2050 
L 2050 2050 
L 2050 1175 
L 2975 1175 
z
M 2975 2450 
L 2975 3300 
L 2050 3300 
L 2050 2450 
L 2975 2450 
z
" transform="scale(0.015625)"/>
       <path id="SimHei-67f3" d="M 3400 4000 
Q 3725 3925 4000 3900 
Q 3900 3625 3912 2937 
Q 3925 2250 3887 1650 
Q 3850 1050 3587 475 
Q 3325 -100 2525 -600 
Q 2450 -400 2175 -175 
Q 2850 150 3112 600 
Q 3375 1050 3425 1550 
Q 3300 1500 3087 1337 
Q 2875 1175 2600 950 
Q 2450 1200 2275 1400 
Q 2450 1600 2425 1950 
L 2425 3950 
Q 2400 4400 2375 4725 
Q 2700 4750 3100 4862 
Q 3500 4975 3700 5075 
Q 3900 4750 4050 4600 
Q 3675 4550 2850 4375 
L 2850 1700 
Q 3000 1800 3450 2075 
L 3450 3375 
Q 3450 3625 3400 4000 
z
M 6000 4700 
Q 5975 4350 5975 3900 
L 5975 1175 
Q 5975 675 5200 575 
Q 5175 850 4975 1125 
Q 5575 1125 5525 1375 
L 5525 4300 
L 4850 4300 
L 4850 800 
Q 4850 175 4875 -500 
L 4350 -500 
Q 4400 50 4400 800 
L 4400 3850 
Q 4400 4325 4375 4700 
L 6000 4700 
z
M 1125 4575 
Q 1125 4900 1100 5200 
L 1625 5200 
Q 1575 4875 1575 4425 
L 1575 3925 
Q 1725 3925 2150 3950 
L 2150 3500 
Q 1775 3525 1575 3525 
L 1575 2725 
Q 1700 2800 1925 2950 
Q 2000 2800 2350 2050 
Q 2125 1950 1900 1800 
Q 1650 2375 1575 2550 
L 1575 425 
Q 1575 -25 1625 -550 
L 1100 -550 
Q 1125 -25 1125 425 
L 1125 2200 
Q 950 1650 600 1025 
Q 425 1200 200 1375 
Q 375 1625 500 1837 
Q 625 2050 737 2337 
Q 850 2625 937 2937 
Q 1025 3250 1075 3525 
L 900 3525 
Q 800 3525 375 3500 
L 375 3950 
Q 775 3925 1125 3925 
L 1125 4575 
z
" transform="scale(0.015625)"/>
       <path id="SimHei-56ed" d="M 5775 5000 
Q 5750 4325 5750 3600 
L 5750 625 
Q 5750 125 5775 -575 
L 5275 -575 
L 5275 -175 
L 1100 -175 
L 1100 -600 
L 600 -600 
Q 625 50 625 825 
L 625 3600 
Q 625 4300 600 5000 
L 5775 5000 
z
M 5275 250 
L 5275 4600 
L 1100 4600 
L 1100 250 
L 5275 250 
z
M 1475 800 
Q 1900 1050 2150 1500 
Q 2400 1950 2425 2650 
Q 1875 2650 1450 2625 
L 1450 3075 
Q 1875 3050 2375 3050 
L 3925 3050 
Q 4350 3050 4875 3075 
L 4875 2625 
Q 4350 2650 3900 2650 
L 3900 1475 
Q 3875 1125 4012 1100 
Q 4150 1075 4337 1100 
Q 4525 1125 4575 1575 
Q 4825 1400 5075 1350 
Q 4850 650 4425 650 
L 3875 650 
Q 3450 650 3450 1125 
L 3450 2650 
L 2900 2650 
Q 2825 1850 2687 1512 
Q 2550 1175 2400 962 
Q 2250 750 1900 450 
Q 1725 650 1475 800 
z
M 3525 4075 
Q 4025 4075 4550 4100 
L 4550 3625 
Q 4050 3650 3550 3650 
L 2625 3650 
Q 2275 3650 1900 3625 
L 1900 4100 
Q 2275 4075 2625 4075 
L 3525 4075 
z
" transform="scale(0.015625)"/>
      </defs>
      <use xlink:href="#SimHei-8377"/>
      <use xlink:href="#SimHei-82b1" x="100"/>
      <use xlink:href="#SimHei-5782" x="200"/>
      <use xlink:href="#SimHei-67f3" x="300"/>
      <use xlink:href="#SimHei-56ed" x="400"/>
     </g>
    </g>
   </g>
   <g id="text_19">
    <g clip-path="url(#pd67947de79)">
     <!-- 朝夕水岸 -->
     <g transform="translate(528.571155 161.42193) scale(0.09 -0.09)">
      <defs>
       <path id="SimHei-671d" d="M 5825 4875 
Q 5800 4325 5800 3600 
L 5800 125 
Q 5825 -325 5637 -437 
Q 5450 -550 4925 -650 
Q 4850 -350 4700 -100 
Q 5125 -100 5237 -75 
Q 5350 -50 5350 200 
L 5350 1450 
L 4125 1450 
Q 4075 975 3887 450 
Q 3700 -75 3325 -625 
Q 3050 -425 2850 -375 
Q 3225 75 3425 575 
Q 3625 1075 3675 1800 
Q 3725 2525 3725 3375 
Q 3725 4225 3700 4875 
L 5825 4875 
z
M 1750 4475 
Q 1750 4750 1725 5175 
L 2225 5175 
Q 2200 4825 2200 4475 
L 2750 4475 
Q 2975 4475 3375 4500 
L 3375 4075 
Q 3175 4100 2725 4100 
L 2200 4100 
L 2200 3550 
L 3175 3550 
Q 3150 3325 3150 2525 
Q 3150 1725 3175 1450 
L 2200 1450 
L 2200 925 
L 2525 925 
Q 3075 925 3350 950 
L 3350 525 
Q 3075 550 2500 550 
L 2200 550 
L 2200 150 
Q 2200 -175 2225 -575 
L 1700 -575 
Q 1725 -200 1750 150 
L 1750 550 
L 1250 550 
Q 550 550 325 525 
L 325 950 
Q 700 925 1125 925 
L 1750 925 
L 1750 1450 
L 725 1450 
Q 750 1775 750 2525 
Q 750 3275 725 3550 
L 1750 3550 
L 1750 4100 
L 1075 4100 
Q 800 4100 500 4075 
L 500 4500 
Q 825 4475 1150 4475 
L 1750 4475 
z
M 5350 1825 
L 5350 3000 
L 4175 3000 
Q 4175 2475 4150 1825 
L 5350 1825 
z
M 5350 3375 
L 5350 4475 
L 4175 4475 
L 4175 3375 
L 5350 3375 
z
M 2700 1825 
L 2700 2325 
L 1200 2325 
L 1200 1825 
L 2700 1825 
z
M 2700 2700 
L 2700 3175 
L 1200 3175 
L 1200 2700 
L 2700 2700 
z
" transform="scale(0.015625)"/>
       <path id="SimHei-5915" d="M 3150 5000 
Q 2975 4850 2625 4100 
L 5700 4100 
Q 5575 3200 5325 2550 
Q 5075 1950 4600 1362 
Q 4125 775 3250 262 
Q 2375 -250 850 -600 
Q 725 -325 475 -100 
Q 1100 -50 1987 225 
Q 2875 500 3675 1150 
Q 3175 1700 2250 2275 
Q 2450 2475 2575 2675 
Q 3300 2250 4100 1550 
Q 4950 2525 5075 3675 
L 2375 3675 
Q 1800 2700 1125 2000 
Q 925 2200 675 2300 
Q 1475 3025 1975 3925 
Q 2475 4825 2575 5225 
Q 2800 5075 3150 5000 
z
" transform="scale(0.015625)"/>
       <path id="SimHei-6c34" d="M 3450 5175 
Q 3450 4800 3437 4500 
Q 3425 4200 3487 3762 
Q 3550 3325 3950 2725 
Q 4975 3575 5175 4050 
Q 5450 3800 5675 3575 
Q 5350 3350 5037 3075 
Q 4725 2800 4175 2325 
Q 4375 1900 4900 1375 
Q 5425 850 6175 625 
Q 5750 425 5675 125 
Q 4725 700 4212 1400 
Q 3700 2100 3425 2800 
L 3425 25 
Q 3450 -325 3162 -475 
Q 2875 -625 2400 -675 
Q 2375 -400 2175 -75 
Q 2575 -150 2750 -100 
Q 2925 -50 2925 225 
L 2925 4175 
Q 2925 4800 2875 5175 
L 3450 5175 
z
M 2550 3575 
Q 2425 2900 2237 2362 
Q 2050 1825 1737 1300 
Q 1425 775 750 100 
Q 575 325 225 450 
Q 925 950 1337 1600 
Q 1750 2250 1950 3125 
L 1275 3125 
Q 900 3125 425 3075 
L 425 3600 
Q 875 3575 1250 3575 
L 2550 3575 
z
" transform="scale(0.015625)"/>
       <path id="SimHei-5cb8" d="M 4425 2200 
Q 5100 2200 5525 2225 
L 5525 1800 
L 4975 1825 
L 3800 1825 
L 3800 1075 
L 5150 1075 
Q 5450 1075 5975 1100 
L 5975 675 
Q 5425 700 5125 700 
L 3800 700 
L 3800 325 
Q 3800 -125 3825 -625 
L 3300 -625 
Q 3350 -125 3350 325 
L 3350 700 
L 2450 700 
Q 1850 700 1375 675 
L 1375 1100 
Q 1850 1075 2275 1075 
L 3350 1075 
L 3350 1825 
L 2700 1825 
Q 2175 1825 1750 1800 
L 1750 2225 
Q 2100 2200 2700 2200 
L 4425 2200 
z
M 4875 3100 
Q 5250 3100 5775 3125 
L 5775 2700 
Q 5400 2725 4875 2725 
L 1350 2725 
Q 1375 1375 1250 712 
Q 1125 50 700 -675 
Q 500 -475 250 -400 
Q 600 75 775 700 
Q 875 1150 900 1675 
Q 925 2200 875 3100 
L 4875 3100 
z
M 1500 4825 
Q 1475 4275 1475 3950 
L 3075 3950 
L 3075 4600 
Q 3075 4875 3050 5150 
L 3575 5150 
Q 3550 4875 3550 4600 
L 3550 3950 
L 5125 3950 
L 5125 4300 
Q 5125 4550 5075 4850 
L 5600 4850 
Q 5575 4425 5575 4100 
L 5575 3575 
L 1000 3575 
L 1025 4200 
Q 1025 4475 1000 4825 
L 1500 4825 
z
" transform="scale(0.015625)"/>
      </defs>
      <use xlink:href="#SimHei-671d"/>
      <use xlink:href="#SimHei-5915" x="100"/>
      <use xlink:href="#SimHei-6c34" x="200"/>
      <use xlink:href="#SimHei-5cb8" x="300"/>
     </g>
    </g>
   </g>
   <g id="text_20">
    <g clip-path="url(#pd67947de79)">
     <!-- 黑松林 -->
     <g transform="translate(729.489614 164.53379) scale(0.09 -0.09)">
      <defs>
       <path id="SimHei-9ed1" d="M 5600 5075 
Q 5575 4575 5575 3975 
Q 5575 3375 5600 2825 
L 3450 2825 
L 3450 2225 
L 4675 2225 
Q 5075 2225 5575 2250 
L 5575 1800 
Q 5150 1850 4700 1850 
L 3450 1850 
L 3450 1250 
L 5250 1250 
Q 5675 1250 6175 1300 
L 6175 825 
Q 5675 850 5250 850 
L 1225 850 
Q 775 850 225 825 
L 225 1300 
Q 800 1250 1200 1250 
L 2975 1250 
L 2975 1850 
L 1775 1850 
Q 1375 1850 875 1800 
L 875 2275 
Q 1375 2250 1775 2250 
L 2975 2250 
L 2975 2825 
L 850 2825 
Q 875 3375 875 3950 
Q 875 4550 850 5075 
L 5600 5075 
z
M 5100 3250 
L 5100 4700 
L 3450 4700 
L 3450 3250 
L 5100 3250 
z
M 2975 3250 
L 2975 4700 
L 1350 4700 
L 1350 3250 
L 2975 3250 
z
M 1350 500 
Q 1225 350 1100 25 
Q 975 -300 800 -650 
Q 575 -550 325 -450 
Q 475 -175 600 75 
Q 725 325 825 675 
Q 1100 575 1350 500 
z
M 5500 650 
Q 5750 50 5950 -300 
Q 5750 -400 5425 -550 
Q 5300 -50 5000 475 
Q 5250 550 5500 650 
z
M 2200 4400 
Q 2450 3950 2625 3550 
Q 2450 3450 2150 3300 
Q 1950 3775 1725 4175 
Q 1975 4275 2200 4400 
z
M 2625 525 
Q 2750 -50 2800 -475 
Q 2600 -475 2275 -550 
Q 2250 -50 2125 450 
Q 2325 475 2625 525 
z
M 4725 4175 
Q 4625 4025 4525 3862 
Q 4425 3700 4250 3350 
Q 4000 3450 3750 3525 
Q 4025 3975 4200 4400 
Q 4425 4325 4725 4175 
z
M 4025 600 
Q 4150 175 4300 -325 
L 3775 -475 
Q 3700 -50 3525 500 
L 4025 600 
z
" transform="scale(0.015625)"/>
       <path id="SimHei-677e" d="M 1350 3750 
Q 1350 4775 1325 5175 
L 1850 5175 
Q 1825 4775 1825 3750 
Q 2200 3750 2575 3775 
L 2575 3325 
Q 2200 3350 1825 3350 
L 1825 2450 
Q 1900 2550 2100 2725 
Q 2375 2375 2850 1625 
Q 2700 1500 2475 1350 
Q 2225 1825 1825 2350 
L 1825 475 
Q 1825 -25 1850 -600 
L 1325 -600 
Q 1350 0 1350 475 
L 1350 2150 
Q 1075 1425 575 675 
Q 400 925 175 1025 
Q 650 1625 937 2375 
Q 1225 3125 1250 3350 
Q 825 3350 375 3325 
L 375 3775 
Q 825 3750 1350 3750 
z
M 4425 2550 
Q 4200 2325 3912 1575 
Q 3625 825 3350 225 
L 5100 400 
Q 4975 725 4625 1400 
Q 4800 1450 5075 1600 
Q 5300 1225 5562 675 
Q 5825 125 5975 -250 
Q 5725 -375 5500 -500 
Q 5375 -200 5275 25 
Q 4050 -100 3612 -187 
Q 3175 -275 2975 -400 
Q 2850 -100 2650 150 
Q 2850 250 3037 587 
Q 3225 925 3475 1650 
Q 3725 2375 3750 2800 
Q 4125 2650 4425 2550 
z
M 4725 5125 
Q 4750 4650 5112 3850 
Q 5475 3050 6200 2650 
Q 5825 2525 5700 2250 
Q 5325 2550 5050 2962 
Q 4775 3375 4575 3837 
Q 4375 4300 4250 5025 
Q 4500 5075 4725 5125 
z
M 3875 4725 
Q 3800 4600 3700 4225 
Q 3600 3850 3362 3200 
Q 3125 2550 2875 2225 
Q 2675 2350 2425 2425 
Q 2725 2825 2975 3512 
Q 3225 4200 3325 4900 
Q 3575 4775 3875 4725 
z
" transform="scale(0.015625)"/>
       <path id="SimHei-6797" d="M 2925 3850 
Q 3200 3825 3500 3825 
L 3950 3825 
L 3950 4575 
Q 3950 4925 3900 5200 
L 4475 5200 
Q 4450 5050 4450 4550 
L 4450 3825 
L 5200 3825 
Q 5575 3825 5925 3875 
L 5925 3400 
Q 5600 3425 5250 3425 
L 4525 3425 
Q 4700 2850 4925 2475 
Q 5150 2100 5387 1825 
Q 5625 1550 5850 1400 
Q 6075 1250 6200 1175 
Q 6075 1025 5975 912 
Q 5875 800 5775 650 
Q 5125 1250 4825 1750 
Q 4525 2225 4450 2525 
L 4450 325 
Q 4450 -50 4475 -500 
L 3925 -500 
Q 3950 50 3950 325 
L 3950 2525 
Q 3600 1700 3300 1200 
Q 3000 700 2775 475 
Q 2550 650 2275 825 
Q 2600 1125 2862 1500 
Q 3125 1875 3350 2287 
Q 3575 2700 3825 3425 
L 3525 3425 
Q 3225 3425 2925 3400 
L 2925 3850 
z
M 1250 4450 
Q 1250 4825 1225 5175 
L 1800 5175 
Q 1775 4875 1775 4450 
L 1775 3825 
Q 2150 3825 2600 3850 
L 2600 3400 
Q 2150 3425 1775 3425 
L 1775 2575 
Q 1950 2700 2175 2800 
Q 2325 2575 2675 1950 
Q 2475 1850 2200 1675 
Q 2075 2000 1775 2500 
L 1775 550 
Q 1775 25 1800 -500 
L 1225 -500 
Q 1250 50 1250 550 
L 1250 2250 
Q 1025 1575 600 875 
Q 525 1000 250 1425 
Q 500 1725 737 2162 
Q 975 2600 1200 3425 
Q 775 3425 375 3400 
L 375 3850 
Q 875 3825 1250 3825 
L 1250 4450 
z
" transform="scale(0.015625)"/>
      </defs>
      <use xlink:href="#SimHei-9ed1"/>
      <use xlink:href="#SimHei-677e" x="100"/>
      <use xlink:href="#SimHei-6797" x="200"/>
     </g>
    </g>
   </g>
   <g id="text_21">
    <g clip-path="url(#pd67947de79)">
     <!-- 西门 -->
     <g transform="translate(856.702311 150.935615) scale(0.09 -0.09)">
      <use xlink:href="#SimHei-897f"/>
      <use xlink:href="#SimHei-95e8" x="100"/>
     </g>
    </g>
   </g>
   <g id="text_22">
    <g clip-path="url(#pd67947de79)">
     <!-- 荷花池 -->
     <g transform="translate(840.56202 200.421916) scale(0.09 -0.09)">
      <defs>
       <path id="SimHei-6c60" d="M 2525 3425 
Q 2525 3850 2500 4250 
L 3025 4250 
Q 3000 3750 3000 3450 
L 3000 2975 
L 3800 3225 
L 3800 4250 
Q 3800 4675 3775 5075 
L 4275 5075 
Q 4250 4725 4250 4225 
L 4250 3375 
L 5700 3850 
L 5575 1750 
Q 5550 1350 5375 1237 
Q 5200 1125 4725 1025 
Q 4675 1275 4475 1550 
Q 4850 1575 4975 1625 
Q 5100 1675 5125 2025 
L 5175 3200 
L 4250 2925 
L 4250 1425 
Q 4250 1125 4275 600 
L 3775 600 
Q 3800 1075 3800 1425 
L 3800 2775 
L 3000 2525 
L 3000 400 
Q 3000 -25 3450 25 
L 5125 25 
Q 5375 25 5462 175 
Q 5550 325 5625 850 
Q 5850 675 6175 575 
Q 6050 25 5900 -200 
Q 5750 -425 5225 -425 
L 3200 -425 
Q 2500 -425 2525 325 
L 2525 2350 
L 1975 2150 
L 1850 2625 
L 2525 2825 
L 2525 3425 
z
M 1825 1525 
Q 1675 1300 1375 600 
Q 1075 -100 875 -525 
Q 550 -350 300 -225 
Q 550 75 875 750 
Q 1200 1425 1300 1800 
Q 1525 1650 1825 1525 
z
M 550 3400 
Q 1000 3175 1600 2775 
Q 1425 2575 1275 2300 
Q 825 2675 250 2975 
Q 400 3175 550 3400 
z
M 1050 4950 
Q 1500 4625 2000 4200 
Q 1800 4000 1625 3775 
Q 1200 4200 725 4575 
Q 875 4750 1050 4950 
z
" transform="scale(0.015625)"/>
      </defs>
      <use xlink:href="#SimHei-8377"/>
      <use xlink:href="#SimHei-82b1" x="100"/>
      <use xlink:href="#SimHei-6c60" x="200"/>
     </g>
    </g>
   </g>
   <g id="text_23">
    <g clip-path="url(#pd67947de79)">
     <!-- 恐龙园 -->
     <g transform="translate(894.503306 261.096891) scale(0.09 -0.09)">
      <defs>
       <path id="SimHei-6050" d="M 5075 4925 
Q 5050 4500 5050 4125 
L 5050 2700 
Q 5050 2375 5175 2375 
L 5425 2375 
Q 5550 2375 5650 2975 
Q 5875 2800 6150 2750 
Q 6000 2025 5775 1975 
Q 5550 1925 5325 1925 
Q 5125 1925 4875 1975 
Q 4625 2025 4600 2425 
L 4600 4525 
L 3475 4525 
Q 3500 3950 3412 3187 
Q 3325 2425 2600 1675 
Q 2500 1825 2175 1975 
Q 2575 2275 2800 2712 
Q 3025 3150 3037 3662 
Q 3050 4175 3000 4925 
L 5075 4925 
z
M 2650 4325 
Q 2175 4350 1850 4350 
L 1850 2900 
Q 2125 2950 2725 3100 
Q 2700 2875 2725 2700 
Q 1200 2375 575 2150 
Q 475 2400 375 2625 
Q 750 2675 1400 2825 
L 1400 4350 
Q 950 4350 500 4325 
L 500 4750 
Q 950 4725 1550 4725 
Q 2175 4725 2650 4750 
L 2650 4325 
z
M 2450 1475 
Q 2425 875 2425 550 
Q 2425 225 2462 75 
Q 2500 -75 2775 -75 
L 3900 -75 
Q 4250 -100 4350 112 
Q 4450 325 4450 625 
Q 4725 425 4975 375 
Q 4800 -200 4612 -337 
Q 4425 -475 4050 -475 
L 2525 -475 
Q 1975 -450 1950 50 
L 1950 650 
Q 1950 1000 1925 1475 
L 2450 1475 
z
M 1625 1425 
Q 1225 450 875 -150 
Q 600 0 425 100 
Q 875 750 1200 1650 
Q 1375 1550 1625 1425 
z
M 6000 350 
Q 5725 175 5525 25 
Q 5375 350 4725 1400 
Q 4900 1525 5100 1675 
Q 5775 650 6000 350 
z
M 3275 1925 
Q 3775 1250 4050 850 
Q 3800 700 3625 550 
Q 3400 1000 2925 1650 
Q 3075 1775 3275 1925 
z
M 3875 4025 
Q 4350 3225 4550 2900 
Q 4350 2825 4125 2650 
Q 4000 3000 3500 3800 
Q 3700 3950 3875 4025 
z
" transform="scale(0.015625)"/>
       <path id="SimHei-9f99" d="M 3200 5100 
Q 3075 4875 3062 4537 
Q 3050 4200 3000 3650 
L 5025 3650 
Q 5475 3650 5925 3700 
L 5925 3200 
Q 5475 3225 5025 3225 
L 3800 3225 
L 3800 950 
Q 4100 1300 4400 1737 
Q 4700 2175 4875 2625 
Q 5200 2475 5500 2375 
Q 5150 2025 4800 1475 
Q 4450 925 3825 375 
Q 3800 -50 3887 -75 
Q 3975 -100 4175 -125 
L 4975 -125 
Q 5275 -100 5400 -75 
Q 5525 -50 5625 575 
Q 5875 325 6200 275 
Q 5950 -275 5825 -400 
Q 5700 -525 5400 -525 
L 3925 -525 
Q 3525 -525 3425 -412 
Q 3325 -300 3325 50 
Q 3175 -75 2862 -250 
Q 2550 -425 2325 -550 
Q 2250 -400 1950 -150 
Q 2300 -25 2700 200 
Q 3100 425 3325 625 
L 3325 3225 
L 2975 3225 
Q 2850 2500 2700 2050 
Q 2550 1600 2325 1187 
Q 2100 775 1750 362 
Q 1400 -50 775 -575 
Q 775 -425 300 -150 
Q 725 75 1087 437 
Q 1450 800 1737 1225 
Q 2025 1650 2200 2150 
Q 2375 2650 2450 3225 
L 1475 3225 
Q 1025 3225 550 3200 
L 550 3675 
Q 1050 3650 1475 3650 
L 2525 3650 
Q 2550 3950 2562 4375 
Q 2575 4800 2525 5250 
Q 3050 5125 3200 5100 
z
M 5050 4175 
Q 4925 4075 4650 3825 
Q 4400 4200 3975 4650 
Q 4150 4775 4350 4975 
Q 4675 4675 5050 4175 
z
" transform="scale(0.015625)"/>
      </defs>
      <use xlink:href="#SimHei-6050"/>
      <use xlink:href="#SimHei-9f99" x="100"/>
      <use xlink:href="#SimHei-56ed" x="200"/>
     </g>
    </g>
   </g>
   <g id="text_24">
    <g clip-path="url(#pd67947de79)">
     <!-- 瓦萨博物馆 -->
     <g transform="translate(876.302178 385.360222) scale(0.09 -0.09)">
      <defs>
       <path id="SimHei-74e6" d="M 4850 4675 
Q 5300 4675 5825 4700 
L 5825 4225 
Q 5300 4250 4925 4250 
L 2350 4250 
L 2225 3325 
L 4650 3325 
Q 4625 3000 4575 2325 
L 4475 475 
Q 4400 125 4725 -50 
L 5150 -50 
Q 5400 -50 5450 75 
Q 5500 200 5550 775 
Q 5825 600 6125 525 
Q 5975 -25 5862 -250 
Q 5750 -475 5350 -475 
L 4600 -475 
Q 3925 -500 3975 250 
L 4125 2900 
L 2175 2900 
L 1750 275 
Q 2050 375 2375 475 
L 3400 775 
Q 3350 600 3400 275 
Q 2425 25 1937 -137 
Q 1450 -300 1300 -400 
Q 1175 -25 1025 150 
Q 1325 425 1350 775 
L 1825 4250 
L 1425 4250 
Q 975 4250 450 4225 
L 450 4700 
Q 975 4675 1425 4675 
L 4850 4675 
z
M 2700 2325 
Q 3100 1975 3625 1350 
Q 3425 1175 3250 1025 
Q 2925 1475 2375 2000 
Q 2550 2150 2700 2325 
z
" transform="scale(0.015625)"/>
       <path id="SimHei-8428" d="M 1200 950 
Q 1900 925 1850 1325 
Q 1800 1725 1425 2150 
Q 1625 2600 1850 3200 
L 1025 3200 
L 1025 -600 
L 550 -600 
Q 575 -150 575 250 
L 575 2800 
Q 575 3150 550 3575 
L 2525 3575 
Q 2450 3375 2275 2962 
Q 2100 2550 1900 2175 
Q 2575 1375 2362 962 
Q 2150 550 1475 450 
Q 1425 725 1200 950 
z
M 6000 4275 
Q 5650 4300 5325 4300 
L 4250 4300 
Q 4250 4150 4275 3925 
L 3775 3925 
L 3775 4300 
L 2525 4300 
L 2525 3875 
L 2000 3875 
Q 2050 4100 2050 4300 
L 1150 4300 
Q 775 4300 400 4275 
L 400 4725 
Q 775 4700 1150 4700 
L 2050 4700 
Q 2050 4875 2000 5225 
L 2550 5225 
Q 2525 4875 2525 4700 
L 3775 4700 
Q 3775 4875 3750 5225 
L 4275 5225 
Q 4250 4900 4250 4700 
L 5325 4700 
Q 5700 4700 6000 4725 
L 6000 4275 
z
M 1775 -225 
Q 2275 -25 2500 300 
Q 2725 625 2762 1112 
Q 2800 1600 2775 1975 
L 4650 1975 
Q 4875 2500 4925 2800 
Q 5150 2700 5475 2600 
Q 5350 2475 5125 1975 
Q 5625 1975 6100 2000 
L 6100 1575 
Q 5625 1600 5225 1600 
L 3275 1600 
Q 3275 675 2975 175 
Q 2675 -325 2225 -625 
Q 2075 -400 1775 -225 
z
M 4200 3325 
Q 4175 3525 4075 3750 
Q 4325 3800 4575 3875 
Q 4650 3575 4750 3325 
Q 5525 3325 5975 3350 
L 5975 2925 
Q 5525 2950 5025 2950 
L 3850 2950 
Q 3325 2950 2925 2925 
L 2925 3350 
Q 3350 3325 4200 3325 
z
M 3675 2850 
Q 3875 2550 4050 2300 
Q 3875 2225 3650 2075 
Q 3500 2425 3300 2625 
Q 3525 2725 3675 2850 
z
" transform="scale(0.015625)"/>
       <path id="SimHei-535a" d="M 3600 4575 
Q 3600 5000 3575 5200 
L 4100 5200 
Q 4075 4950 4075 4575 
L 5075 4575 
Q 5650 4575 5925 4600 
L 5925 4150 
Q 5650 4175 5100 4175 
L 4075 4175 
L 4075 3775 
L 5525 3775 
Q 5500 3400 5500 3050 
L 5500 2500 
Q 5500 2025 5525 1725 
L 5050 1725 
L 5050 1975 
L 4075 1975 
Q 4075 1750 4100 1525 
L 3575 1525 
Q 3600 1775 3600 1975 
L 2775 1975 
L 2775 1550 
L 2275 1550 
Q 2300 1825 2300 2250 
L 2300 3025 
Q 2300 3500 2275 3775 
L 3600 3775 
L 3600 4175 
L 3075 4175 
Q 2575 4175 2100 4150 
L 2100 4600 
Q 2550 4575 3050 4575 
L 3600 4575 
z
M 950 4375 
Q 950 4825 925 5175 
L 1425 5175 
Q 1400 4750 1400 4375 
L 1400 3375 
Q 1725 3375 2050 3400 
L 2050 2925 
Q 1700 2950 1400 2950 
L 1400 250 
Q 1400 -225 1425 -500 
L 925 -500 
Q 950 -250 950 250 
L 950 2950 
Q 600 2950 250 2925 
L 250 3400 
Q 625 3375 950 3375 
L 950 4375 
z
M 4800 1225 
Q 4800 1425 4775 1625 
L 5275 1625 
Q 5250 1425 5250 1225 
L 5425 1225 
Q 5875 1225 6200 1250 
L 6200 775 
Q 5850 800 5425 800 
L 5250 800 
L 5250 -25 
Q 5250 -425 4987 -500 
Q 4725 -575 4325 -650 
Q 4275 -375 4125 -125 
Q 4550 -125 4675 -100 
Q 4800 -75 4800 200 
L 4800 800 
L 2700 800 
Q 2175 800 1875 750 
L 1875 1250 
Q 2175 1225 2700 1225 
L 4800 1225 
z
M 3075 750 
Q 3375 400 3600 100 
Q 3375 -50 3175 -200 
Q 2975 125 2675 475 
Q 2875 600 3075 750 
z
M 5050 2350 
L 5050 2700 
L 4075 2700 
L 4075 2350 
L 5050 2350 
z
M 5050 3075 
L 5050 3400 
L 4075 3400 
L 4075 3075 
L 5050 3075 
z
M 3600 2350 
L 3600 2700 
L 2775 2700 
L 2775 2350 
L 3600 2350 
z
M 3600 3075 
L 3600 3400 
L 2775 3400 
L 2775 3075 
L 3600 3075 
z
M 5000 4625 
Q 4800 4825 4650 5000 
L 5025 5250 
Q 5150 5075 5375 4850 
Q 5150 4750 5000 4625 
z
" transform="scale(0.015625)"/>
       <path id="SimHei-7269" d="M 5550 3775 
L 5225 3775 
Q 5175 2925 5062 2312 
Q 4950 1700 4700 1225 
Q 4450 750 4087 337 
Q 3725 -75 3100 -475 
Q 2950 -250 2650 -75 
Q 3275 175 3662 575 
Q 4050 975 4275 1462 
Q 4500 1950 4600 2537 
Q 4700 3125 4750 3775 
L 4325 3775 
Q 4250 3025 3912 2275 
Q 3575 1525 3075 1025 
Q 2925 1250 2600 1350 
Q 3175 1825 3462 2400 
Q 3750 2975 3875 3775 
L 3500 3775 
Q 3175 3125 2950 2800 
Q 2750 2975 2500 3050 
Q 3025 3750 3275 4375 
Q 3525 5000 3575 5275 
Q 3925 5125 4200 5050 
Q 4075 4950 3962 4725 
Q 3850 4500 3725 4200 
L 6075 4200 
Q 5975 3100 5937 1850 
Q 5900 600 5862 225 
Q 5825 -150 5500 -287 
Q 5175 -425 4550 -500 
Q 4525 -225 4300 75 
Q 5025 25 5187 100 
Q 5350 175 5375 525 
L 5550 3775 
z
M 1250 4325 
Q 1100 4125 1025 3700 
L 1600 3700 
L 1600 4525 
Q 1600 4900 1550 5200 
L 2100 5200 
Q 2075 4900 2075 4525 
L 2075 3700 
Q 2325 3700 2650 3725 
L 2650 3275 
Q 2300 3300 2075 3300 
L 2075 2000 
Q 2500 2100 2775 2225 
Q 2775 2000 2800 1775 
Q 2475 1675 2075 1550 
L 2075 375 
Q 2075 -50 2100 -600 
L 1550 -600 
Q 1600 -100 1600 375 
L 1600 1425 
Q 1325 1350 1062 1262 
Q 800 1175 500 1025 
Q 425 1250 250 1575 
Q 700 1625 1600 1850 
L 1600 3300 
L 950 3300 
Q 850 2825 725 2375 
Q 475 2500 225 2500 
Q 450 3025 537 3512 
Q 625 4000 650 4425 
Q 925 4350 1250 4325 
z
" transform="scale(0.015625)"/>
       <path id="SimHei-9986" d="M 5500 3150 
Q 5475 2925 5475 2525 
Q 5475 2150 5500 1750 
L 3450 1750 
L 3450 1250 
L 5875 1250 
Q 5850 625 5850 250 
Q 5850 -100 5875 -550 
L 5400 -550 
L 5400 -175 
L 3450 -175 
L 3450 -600 
L 2975 -600 
Q 3000 -100 3000 325 
L 3000 2300 
Q 3000 2775 2975 3150 
L 5500 3150 
z
M 5975 4300 
Q 5950 4050 5950 3775 
Q 5950 3525 5975 3250 
L 5500 3250 
L 5500 3900 
L 3050 3900 
L 3050 3250 
L 2600 3250 
Q 2625 3475 2625 3750 
Q 2625 4025 2600 4300 
L 4125 4300 
Q 3975 4700 3750 5075 
Q 4025 5175 4150 5300 
Q 4375 5000 4625 4500 
Q 4400 4400 4200 4300 
L 5975 4300 
z
M 1625 2900 
Q 1800 3300 1875 3625 
L 1125 3625 
Q 1000 3375 887 3137 
Q 775 2900 625 2625 
Q 425 2850 200 2975 
Q 525 3400 737 3950 
Q 950 4500 1075 5075 
Q 1375 4950 1675 4850 
Q 1550 4725 1450 4475 
Q 1350 4225 1250 4050 
L 2425 4050 
Q 2250 3400 2075 2775 
Q 1825 2850 1625 2900 
z
M 2225 1225 
Q 2300 950 2425 675 
Q 2100 500 1762 212 
Q 1425 -75 1150 -325 
Q 975 -75 825 100 
Q 950 275 987 400 
Q 1025 525 1025 800 
L 1025 2125 
Q 1025 2450 1000 2750 
L 1500 2750 
Q 1475 2375 1475 2300 
L 1475 575 
Q 1825 825 2225 1225 
z
M 5400 200 
L 5400 875 
L 3450 875 
L 3450 200 
L 5400 200 
z
M 5025 2150 
L 5025 2750 
L 3450 2750 
L 3450 2150 
L 5025 2150 
z
" transform="scale(0.015625)"/>
      </defs>
      <use xlink:href="#SimHei-74e6"/>
      <use xlink:href="#SimHei-8428" x="100"/>
      <use xlink:href="#SimHei-535a" x="200"/>
      <use xlink:href="#SimHei-7269" x="300"/>
      <use xlink:href="#SimHei-9986" x="400"/>
     </g>
    </g>
   </g>
   <g id="text_25">
    <g clip-path="url(#pd67947de79)">
     <!-- 竹筏湿地公园 -->
     <g transform="translate(787.860973 439.368161) scale(0.09 -0.09)">
      <defs>
       <path id="SimHei-7af9" d="M 2500 2125 
Q 2800 2425 3037 2775 
Q 3275 3125 3462 3525 
Q 3650 3925 3812 4337 
Q 3975 4750 4100 5225 
Q 4350 5125 4725 5025 
Q 4550 4775 4425 4475 
Q 4300 4175 4075 3675 
L 5275 3675 
Q 5625 3675 6100 3700 
L 6100 3250 
Q 5550 3275 5325 3275 
L 5175 3275 
L 5175 125 
Q 5175 -425 4850 -512 
Q 4525 -600 4075 -650 
Q 4025 -325 3900 0 
Q 4425 -25 4550 25 
Q 4675 75 4675 400 
L 4675 3275 
L 3875 3275 
Q 3650 2875 3475 2562 
Q 3300 2250 2950 1775 
Q 2825 1950 2500 2125 
z
M 2100 4975 
Q 1900 4700 1762 4375 
Q 1625 4050 1450 3675 
L 2225 3675 
Q 2575 3675 3025 3700 
L 3025 3250 
Q 2575 3275 2250 3275 
L 2000 3275 
L 2000 400 
Q 2000 -25 2025 -625 
L 1475 -625 
Q 1475 -25 1500 400 
L 1500 3275 
L 1250 3275 
Q 1100 3000 975 2775 
Q 850 2550 700 2300 
Q 525 2475 200 2600 
Q 425 2875 625 3200 
Q 825 3525 987 3887 
Q 1150 4250 1275 4587 
Q 1400 4925 1450 5225 
Q 1825 5050 2100 4975 
z
" transform="scale(0.015625)"/>
       <path id="SimHei-7b4f" d="M 5650 525 
Q 5875 325 6175 275 
Q 6025 -250 5875 -437 
Q 5725 -625 5450 -612 
Q 5175 -600 4762 -325 
Q 4350 -50 4050 375 
Q 3700 225 3450 112 
Q 3200 0 2675 -225 
Q 2525 25 2250 250 
Q 2675 325 3062 450 
Q 3450 575 3775 800 
Q 3650 1025 3562 1300 
Q 3475 1575 3400 1825 
Q 3075 1800 2775 1762 
Q 2475 1725 2125 1675 
L 2025 2150 
Q 2925 2200 3300 2250 
Q 3200 2725 3150 3225 
Q 3450 3200 3725 3200 
Q 3675 2975 3700 2750 
Q 3725 2525 3775 2300 
Q 4300 2350 4837 2412 
Q 5375 2475 5925 2550 
L 6000 2125 
Q 5550 2075 4975 2012 
Q 4400 1950 3875 1875 
Q 4050 1275 4225 1000 
Q 4525 1175 4812 1387 
Q 5100 1600 5275 1750 
Q 5475 1525 5775 1350 
Q 5425 1200 5175 1050 
Q 4925 900 4450 600 
Q 4750 225 5087 37 
Q 5425 -150 5512 62 
Q 5600 275 5650 525 
z
M 500 1025 
Q 350 1250 150 1450 
Q 700 1850 1137 2375 
Q 1575 2900 1775 3425 
Q 1975 3225 2400 3050 
Q 2200 2925 2075 2750 
Q 1950 2575 1800 2325 
L 1800 375 
Q 1800 225 1825 -650 
L 1300 -650 
Q 1325 200 1325 350 
L 1325 1825 
Q 950 1425 500 1025 
z
M 2675 3575 
Q 2400 3525 2125 3400 
Q 2025 3800 1875 4150 
L 1425 4150 
Q 1225 3825 950 3475 
Q 825 3675 475 3750 
Q 825 4100 1062 4462 
Q 1300 4825 1475 5250 
Q 1700 5125 2000 5025 
Q 1775 4775 1650 4550 
L 2450 4550 
Q 2750 4550 3175 4575 
L 3175 4125 
Q 2750 4150 2400 4150 
Q 2525 3925 2675 3575 
z
M 4675 5000 
Q 4425 4775 4275 4550 
L 5225 4550 
Q 5375 4550 5975 4575 
L 5975 4150 
Q 5275 4175 5050 4175 
Q 5125 4000 5250 3675 
Q 5000 3625 4750 3550 
Q 4675 3825 4575 4150 
L 4050 4150 
Q 3725 3775 3600 3600 
Q 3400 3725 3125 3825 
Q 3450 4150 3687 4500 
Q 3925 4850 4125 5250 
Q 4375 5100 4675 5000 
z
M 4700 3450 
Q 4975 3125 5225 2825 
Q 5000 2725 4825 2500 
Q 4600 2825 4325 3125 
Q 4525 3275 4700 3450 
z
" transform="scale(0.015625)"/>
       <path id="SimHei-6e7f" d="M 2275 2400 
Q 2300 2875 2300 3650 
Q 2300 4450 2275 4950 
L 5650 4950 
Q 5625 4450 5625 3650 
Q 5625 2875 5650 2400 
L 2275 2400 
z
M 4775 2175 
Q 4750 1600 4750 1050 
L 4750 -50 
L 5200 -50 
Q 5625 -50 6050 -25 
L 6050 -450 
Q 5625 -425 5200 -425 
L 2725 -425 
Q 2200 -425 1800 -450 
L 1800 -25 
Q 2225 -50 2700 -50 
L 3125 -50 
L 3125 1050 
L 3100 2150 
L 3625 2150 
Q 3600 1600 3600 1325 
L 3600 -50 
L 4275 -50 
L 4275 1325 
Q 4275 1600 4250 2175 
L 4775 2175 
z
M 5175 2825 
L 5175 3475 
L 2750 3475 
L 2750 2825 
L 5175 2825 
z
M 5175 3900 
L 5175 4525 
L 2750 4525 
L 2750 3900 
L 5175 3900 
z
M 1575 1600 
Q 1325 1000 1112 387 
Q 900 -225 775 -575 
Q 550 -400 275 -300 
Q 425 -75 687 512 
Q 950 1100 1150 1875 
Q 1350 1725 1575 1600 
z
M 6125 1725 
Q 5600 675 5275 275 
Q 5075 450 4875 525 
Q 5425 1225 5700 2000 
Q 5925 1825 6125 1725 
z
M 2300 1975 
Q 2675 1250 2900 525 
Q 2650 400 2450 325 
Q 2250 1050 1875 1775 
Q 2075 1850 2300 1975 
z
M 800 5075 
Q 1525 4475 1875 4150 
Q 1650 3975 1525 3800 
Q 1250 4150 500 4725 
Q 650 4850 800 5075 
z
M 475 3425 
Q 1175 3000 1575 2700 
Q 1425 2500 1275 2275 
Q 1025 2525 225 3050 
Q 375 3250 475 3425 
z
" transform="scale(0.015625)"/>
       <path id="SimHei-5730" d="M 2300 2275 
Q 2175 2575 2075 2750 
Q 2350 2800 2750 2950 
L 2750 3525 
Q 2750 3975 2725 4550 
L 3225 4550 
Q 3200 4025 3200 3550 
L 3200 3100 
L 3950 3375 
L 3950 4375 
Q 3950 4800 3925 5225 
L 4450 5225 
Q 4425 4925 4425 4350 
L 4425 3525 
Q 4800 3625 5725 3950 
Q 5700 3650 5700 3075 
L 5700 2100 
Q 5725 1450 5462 1275 
Q 5200 1100 4800 1000 
Q 4725 1250 4575 1525 
Q 5025 1575 5137 1662 
Q 5250 1750 5225 2225 
L 5225 3300 
Q 4800 3175 4425 3050 
L 4425 1375 
Q 4425 925 4450 625 
L 3925 625 
Q 3950 1075 3950 1375 
L 3950 2900 
L 3200 2625 
L 3200 550 
Q 3200 50 3550 50 
L 5150 50 
Q 5400 50 5475 212 
Q 5550 375 5625 775 
Q 5875 600 6175 550 
Q 6025 0 5850 -187 
Q 5675 -375 5300 -375 
L 3325 -375 
Q 2775 -375 2750 300 
L 2750 2475 
Q 2450 2375 2300 2275 
z
M 1625 925 
Q 1975 1025 2425 1225 
Q 2400 950 2400 725 
Q 1975 575 1437 400 
Q 900 225 525 25 
Q 450 275 275 550 
Q 650 650 1125 800 
L 1125 3000 
Q 650 3000 350 2975 
L 350 3450 
Q 650 3425 1125 3425 
L 1125 4225 
Q 1125 4650 1100 5075 
L 1650 5075 
Q 1625 4750 1625 4225 
L 1625 3425 
Q 2075 3425 2350 3450 
L 2350 2975 
Q 2075 3000 1625 3000 
L 1625 925 
z
" transform="scale(0.015625)"/>
       <path id="SimHei-516c" d="M 4450 550 
Q 4250 900 3900 1350 
Q 4150 1500 4325 1650 
Q 4700 1100 5025 562 
Q 5350 25 5525 -300 
Q 5250 -450 5050 -575 
Q 4900 -275 4650 150 
Q 2975 -75 2287 -175 
Q 1600 -275 1300 -400 
Q 1225 -150 1025 150 
Q 1275 250 1500 500 
Q 1725 750 2162 1550 
Q 2600 2350 2775 2950 
Q 3150 2725 3350 2675 
Q 3075 2250 2612 1400 
Q 2150 550 1950 300 
Q 3100 400 4450 550 
z
M 4025 5200 
Q 4500 3925 5037 3275 
Q 5575 2625 6125 2325 
Q 5775 2150 5650 1900 
Q 4900 2525 4375 3350 
Q 3850 4175 3525 5025 
Q 3800 5075 4025 5200 
z
M 2725 4775 
Q 2250 3775 1750 3025 
Q 1250 2275 725 1775 
Q 525 2050 300 2175 
Q 825 2575 1400 3400 
Q 1975 4225 2225 5000 
Q 2400 4875 2725 4775 
z
" transform="scale(0.015625)"/>
      </defs>
      <use xlink:href="#SimHei-7af9"/>
      <use xlink:href="#SimHei-7b4f" x="100"/>
      <use xlink:href="#SimHei-6e7f" x="200"/>
      <use xlink:href="#SimHei-5730" x="300"/>
      <use xlink:href="#SimHei-516c" x="400"/>
      <use xlink:href="#SimHei-56ed" x="500"/>
     </g>
    </g>
   </g>
   <g id="text_26">
    <g clip-path="url(#pd67947de79)">
     <!-- 月潭揽胜 -->
     <g transform="translate(644.141441 452.065345) scale(0.09 -0.09)">
      <defs>
       <path id="SimHei-6f6d" d="M 5650 2550 
Q 5625 2225 5625 1675 
Q 5625 1150 5650 850 
L 4175 850 
L 4175 425 
L 5075 425 
Q 5600 425 6100 450 
L 6100 50 
Q 5625 75 5100 75 
L 4175 75 
Q 4175 -300 4200 -675 
L 3750 -675 
Q 3775 -300 3775 75 
L 3125 75 
Q 2375 75 1825 50 
L 1825 450 
Q 2375 425 3125 425 
L 3775 425 
L 3775 850 
L 2225 850 
Q 2250 1225 2250 1700 
Q 2250 2175 2225 2550 
L 5650 2550 
z
M 5150 5100 
Q 5700 5100 6100 5125 
L 6100 4700 
Q 5700 4725 5175 4725 
L 4675 4725 
L 4675 4175 
L 5850 4175 
Q 5825 3900 5825 3525 
Q 5825 3175 5850 2875 
L 1925 2875 
Q 1950 3200 1950 3525 
Q 1950 3875 1925 4175 
L 3150 4175 
L 3150 4725 
L 2650 4725 
Q 2200 4725 1725 4700 
L 1725 5125 
Q 2200 5100 2625 5100 
L 5150 5100 
z
M 1775 1600 
Q 1600 1250 1350 662 
Q 1100 75 875 -475 
Q 675 -275 350 -125 
Q 600 125 875 725 
Q 1150 1325 1400 1950 
Q 1575 1750 1775 1600 
z
M 5200 1175 
L 5200 1525 
L 2650 1525 
L 2650 1175 
L 5200 1175 
z
M 5200 1875 
L 5200 2225 
L 2650 2225 
L 2650 1875 
L 5200 1875 
z
M 600 3400 
Q 1125 3050 1525 2700 
Q 1325 2500 1200 2275 
Q 850 2600 250 3000 
Q 450 3200 600 3400 
z
M 800 5150 
Q 1325 4700 1650 4400 
Q 1425 4200 1300 3975 
Q 975 4325 475 4750 
Q 650 4950 800 5150 
z
M 5425 3225 
L 5425 3825 
L 4675 3825 
L 4675 3225 
L 5425 3225 
z
M 3150 3225 
L 3150 3825 
L 2400 3825 
L 2400 3225 
L 3150 3225 
z
M 4225 3225 
L 4225 3825 
L 3575 3825 
L 3575 3225 
L 4225 3225 
z
M 4225 4175 
L 4225 4725 
L 3575 4725 
L 3575 4175 
L 4225 4175 
z
" transform="scale(0.015625)"/>
       <path id="SimHei-63fd" d="M 1525 175 
Q 1525 -275 1275 -387 
Q 1025 -500 625 -525 
Q 575 -175 475 75 
Q 1100 -25 1050 300 
L 1050 1775 
Q 925 1700 450 1475 
Q 375 1800 225 1950 
Q 550 2025 1050 2225 
L 1050 3425 
L 925 3425 
Q 575 3425 275 3375 
L 275 3800 
Q 575 3775 925 3775 
L 1050 3775 
L 1050 4400 
Q 1050 4800 1025 5175 
L 1575 5175 
Q 1525 4875 1525 4500 
L 1525 3775 
Q 1775 3775 2025 3800 
L 2025 3400 
Q 1775 3425 1525 3425 
L 1525 2400 
Q 1850 2575 2025 2650 
Q 2050 2350 2075 2200 
Q 1900 2125 1525 1950 
L 1525 175 
z
M 5550 2700 
Q 5500 2625 5500 2225 
L 5500 1375 
Q 5500 1100 5525 900 
L 5025 900 
L 5025 2325 
L 2975 2325 
L 2975 775 
L 2475 775 
Q 2500 1075 2500 1225 
L 2500 2200 
Q 2500 2325 2475 2700 
L 5550 2700 
z
M 4275 1925 
Q 4150 1800 4075 1512 
Q 4000 1225 3837 862 
Q 3675 500 3337 125 
Q 3000 -250 2350 -550 
Q 2100 -175 1900 -100 
Q 2400 25 2775 262 
Q 3150 500 3437 1087 
Q 3725 1675 3650 2075 
Q 4025 1975 4275 1925 
z
M 4600 1275 
Q 4575 1100 4550 850 
L 4550 275 
Q 4550 -25 4850 -25 
L 5250 -25 
Q 5475 -25 5537 100 
Q 5600 225 5625 550 
Q 5800 350 6150 300 
Q 5925 -300 5762 -362 
Q 5600 -425 5325 -425 
L 4700 -425 
Q 4100 -425 4100 75 
L 4100 900 
Q 4100 1100 4075 1275 
L 4600 1275 
z
M 5125 4975 
Q 5025 4850 4937 4700 
Q 4850 4550 4775 4400 
L 5400 4400 
Q 5700 4400 5975 4425 
L 5975 4000 
Q 5725 4025 5400 4025 
L 4625 4025 
L 4400 3675 
Q 4275 3500 4150 3275 
Q 4050 3375 3725 3600 
Q 4025 3900 4250 4325 
Q 4475 4750 4550 5200 
Q 4975 5025 5125 4975 
z
M 3650 5125 
Q 3600 4975 3600 4575 
L 3600 3450 
Q 3600 3150 3650 2950 
L 3150 2950 
Q 3175 3175 3175 3525 
L 3175 4575 
Q 3175 4975 3150 5125 
L 3650 5125 
z
M 2750 4925 
Q 2700 4750 2700 4400 
L 2700 3600 
Q 2700 3400 2725 3175 
L 2250 3175 
Q 2275 3400 2275 3625 
L 2275 4375 
Q 2250 4775 2225 4925 
L 2750 4925 
z
M 4900 3875 
Q 5350 3475 5525 3250 
Q 5400 3175 5175 2950 
Q 5000 3175 4600 3575 
Q 4825 3775 4900 3875 
z
" transform="scale(0.015625)"/>
       <path id="SimHei-80dc" d="M 1425 100 
Q 1725 75 1887 100 
Q 2050 125 2075 375 
L 2075 1650 
L 1200 1650 
Q 1150 1050 1087 712 
Q 1025 375 925 87 
Q 825 -200 675 -475 
Q 450 -275 200 -200 
Q 450 150 600 637 
Q 750 1125 775 1925 
L 775 4075 
Q 775 4475 750 4850 
L 2550 4850 
Q 2525 4350 2525 3850 
L 2525 100 
Q 2550 -425 1575 -475 
Q 1600 -225 1425 100 
z
M 3675 4550 
Q 3575 4350 3425 3750 
L 4075 3750 
Q 4075 4800 4050 5075 
L 4575 5075 
Q 4550 4850 4550 3750 
Q 5375 3750 5750 3775 
L 5750 3350 
Q 5375 3375 4550 3375 
L 4550 2100 
Q 5350 2100 5650 2125 
L 5650 1675 
Q 5300 1700 4550 1700 
L 4550 50 
Q 5550 50 5925 75 
L 5925 -400 
Q 5550 -375 5100 -375 
L 3575 -375 
Q 3075 -375 2675 -400 
L 2675 75 
Q 3075 50 4075 50 
L 4075 1700 
Q 3275 1700 2975 1675 
L 2975 2125 
Q 3275 2100 4075 2100 
L 4075 3375 
L 3325 3375 
Q 3225 2975 2975 2450 
Q 2775 2550 2550 2600 
Q 2825 3125 2975 3675 
Q 3125 4225 3150 4675 
Q 3425 4575 3675 4550 
z
M 2075 3450 
L 2075 4450 
L 1225 4450 
L 1225 3450 
L 2075 3450 
z
M 2075 2050 
L 2075 3050 
L 1225 3050 
L 1225 2050 
L 2075 2050 
z
" transform="scale(0.015625)"/>
      </defs>
      <use xlink:href="#SimHei-6708"/>
      <use xlink:href="#SimHei-6f6d" x="100"/>
      <use xlink:href="#SimHei-63fd" x="200"/>
      <use xlink:href="#SimHei-80dc" x="300"/>
     </g>
    </g>
   </g>
   <g id="text_27">
    <g clip-path="url(#pd67947de79)">
     <!-- 森林植物园 -->
     <g transform="translate(555.426667 433.221442) scale(0.09 -0.09)">
      <defs>
       <path id="SimHei-68ee" d="M 2950 4475 
Q 2950 4875 2925 5100 
L 3425 5100 
Q 3400 4850 3400 4475 
L 4850 4475 
Q 5225 4475 5625 4500 
L 5625 4050 
Q 5225 4075 4875 4075 
L 4000 4075 
Q 4225 3675 4750 3437 
Q 5275 3200 5875 3175 
Q 5650 2925 5575 2700 
Q 4675 2875 4162 3275 
Q 3650 3675 3500 4075 
L 3400 4075 
Q 3400 2950 3425 2500 
L 2925 2500 
Q 2950 2875 2950 4075 
L 2925 4075 
Q 2600 3600 2150 3250 
Q 1700 2900 925 2550 
Q 850 2775 575 2975 
Q 1075 3100 1562 3375 
Q 2050 3650 2375 4075 
Q 1150 4075 800 4050 
L 800 4500 
Q 1200 4475 1725 4475 
L 2950 4475 
z
M 4100 2075 
Q 4100 2325 4075 2625 
L 4550 2625 
Q 4525 2350 4525 2075 
Q 5500 2075 5925 2100 
L 5925 1675 
Q 5475 1700 4850 1700 
Q 5000 1300 5337 887 
Q 5675 475 6125 250 
Q 5875 75 5725 -125 
Q 5475 75 5150 425 
Q 4825 775 4525 1400 
L 4525 425 
Q 4525 0 4550 -500 
L 4075 -500 
Q 4100 -75 4100 400 
L 4100 1300 
Q 3900 775 3625 387 
Q 3350 0 3100 -275 
Q 2900 -75 2600 25 
Q 3125 400 3387 837 
Q 3650 1275 3775 1700 
Q 3550 1700 3200 1675 
L 3200 2100 
Q 3525 2075 4100 2075 
z
M 1700 2075 
Q 1700 2325 1675 2600 
L 2150 2600 
Q 2125 2300 2125 2075 
Q 2525 2075 2875 2100 
L 2875 1675 
Q 2500 1700 2125 1700 
L 2125 400 
Q 2125 -25 2150 -525 
L 1675 -525 
Q 1700 -125 1700 400 
L 1700 1250 
Q 1450 775 1237 487 
Q 1025 200 750 -100 
Q 650 125 325 225 
Q 675 500 950 875 
Q 1225 1250 1400 1700 
Q 850 1700 425 1675 
L 425 2100 
Q 850 2075 1700 2075 
z
M 2525 1450 
Q 2850 1175 3125 900 
Q 2925 750 2750 600 
Q 2600 800 2200 1175 
Q 2375 1275 2525 1450 
z
" transform="scale(0.015625)"/>
       <path id="SimHei-690d" d="M 4275 5075 
Q 4250 4800 4250 4475 
Q 5625 4475 5950 4500 
L 5950 4050 
Q 5625 4075 4250 4075 
L 4250 3525 
L 5475 3525 
Q 5450 3225 5450 2700 
L 5450 150 
Q 5950 150 6175 175 
L 6175 -275 
Q 5950 -250 5275 -250 
L 2950 -250 
Q 2375 -250 2050 -275 
L 2050 175 
Q 2250 150 2700 150 
L 2700 2700 
Q 2700 3250 2675 3525 
L 3800 3525 
L 3800 4075 
Q 2500 4075 2200 4050 
L 2200 4500 
Q 2475 4475 3800 4475 
Q 3800 4900 3775 5075 
L 4275 5075 
z
M 2050 1725 
Q 1975 1875 1837 2100 
Q 1700 2325 1600 2450 
L 1600 275 
Q 1600 -100 1625 -550 
L 1125 -550 
Q 1150 -100 1150 275 
L 1150 2250 
Q 1025 1975 875 1675 
Q 725 1375 525 1050 
Q 375 1375 200 1575 
Q 450 1850 737 2412 
Q 1025 2975 1050 3425 
Q 675 3425 275 3400 
L 275 3850 
Q 700 3825 1150 3825 
Q 1150 4825 1125 5125 
L 1625 5125 
Q 1600 4825 1600 3825 
Q 2000 3825 2325 3850 
L 2325 3400 
Q 1900 3425 1600 3425 
L 1600 2550 
Q 1775 2625 1950 2775 
Q 2200 2425 2450 2025 
Q 2225 1875 2050 1725 
z
M 5025 2650 
L 5025 3150 
L 3125 3150 
L 3125 2650 
L 5025 2650 
z
M 5025 150 
L 5025 625 
L 3125 625 
L 3125 150 
L 5025 150 
z
M 5025 1000 
L 5025 1475 
L 3125 1475 
L 3125 1000 
L 5025 1000 
z
M 5025 1825 
L 5025 2275 
L 3125 2275 
L 3125 1825 
L 5025 1825 
z
" transform="scale(0.015625)"/>
      </defs>
      <use xlink:href="#SimHei-68ee"/>
      <use xlink:href="#SimHei-6797" x="100"/>
      <use xlink:href="#SimHei-690d" x="200"/>
      <use xlink:href="#SimHei-7269" x="300"/>
      <use xlink:href="#SimHei-56ed" x="400"/>
     </g>
    </g>
   </g>
   <g id="text_28">
    <g clip-path="url(#pd67947de79)">
     <!-- 大坝游船码头 -->
     <g transform="translate(401.052389 327.744359) scale(0.09 -0.09)">
      <defs>
       <path id="SimHei-5927" d="M 2900 3400 
Q 2925 4275 2912 4575 
Q 2900 4875 2875 5150 
Q 3175 5100 3550 5075 
Q 3475 4825 3437 4350 
Q 3400 3875 3400 3400 
L 4675 3400 
Q 5350 3400 5925 3450 
L 5925 2900 
Q 5425 2925 4900 2925 
L 3425 2925 
Q 3525 2500 3775 2062 
Q 4025 1625 4287 1287 
Q 4550 950 5012 575 
Q 5475 200 6025 -50 
Q 5825 -200 5625 -550 
Q 5175 -300 4737 75 
Q 4300 450 3862 1062 
Q 3425 1675 3200 2200 
Q 3000 1650 2775 1287 
Q 2550 925 2287 625 
Q 2025 325 1612 25 
Q 1200 -275 675 -575 
Q 475 -275 225 -50 
Q 750 125 1262 450 
Q 1775 775 2100 1187 
Q 2425 1600 2625 2050 
Q 2825 2500 2875 2925 
L 1500 2925 
Q 900 2925 550 2900 
L 550 3450 
Q 900 3425 1500 3400 
L 2900 3400 
z
" transform="scale(0.015625)"/>
       <path id="SimHei-575d" d="M 5725 4725 
Q 5700 4350 5700 2900 
Q 5700 1450 5725 975 
L 5275 975 
L 5275 4350 
L 3225 4350 
L 3225 1000 
L 2775 1000 
Q 2800 1550 2800 2925 
Q 2800 4300 2775 4725 
L 5725 4725 
z
M 1225 4325 
Q 1225 4775 1200 5100 
L 1700 5100 
Q 1675 4750 1675 4300 
L 1675 3475 
Q 2150 3475 2475 3525 
L 2475 3075 
Q 2125 3100 1675 3100 
L 1675 1175 
Q 2100 1300 2500 1450 
Q 2500 1250 2525 1050 
Q 2125 900 1512 687 
Q 900 475 600 300 
Q 450 625 325 825 
Q 700 900 1225 1050 
L 1225 3100 
Q 800 3100 450 3075 
L 450 3500 
Q 800 3475 1225 3475 
L 1225 4325 
z
M 4525 3725 
Q 4450 3300 4425 2537 
Q 4400 1775 4250 1175 
Q 4075 600 3700 212 
Q 3325 -175 2425 -650 
Q 2300 -375 2075 -200 
Q 2875 75 3300 487 
Q 3725 900 3850 1425 
Q 3975 2000 3987 2600 
Q 4000 3200 3975 3800 
Q 4250 3700 4525 3725 
z
M 4700 1050 
Q 5725 125 6125 -250 
Q 5875 -425 5700 -650 
Q 5125 50 4400 700 
Q 4550 825 4700 1050 
z
" transform="scale(0.015625)"/>
       <path id="SimHei-6e38" d="M 3475 3125 
Q 3650 3300 3787 3550 
Q 3925 3800 4025 4062 
Q 4125 4325 4212 4625 
Q 4300 4925 4350 5225 
Q 4625 5100 4950 5050 
Q 4825 4875 4750 4700 
Q 4675 4525 4625 4325 
L 5075 4325 
Q 5575 4325 6150 4350 
L 6150 3925 
Q 5575 3950 5050 3950 
L 4500 3950 
Q 4400 3750 4325 3587 
Q 4250 3425 4150 3225 
L 5925 3225 
L 5925 2750 
Q 5800 2625 5637 2475 
Q 5475 2325 5275 2075 
L 5275 1775 
L 5550 1775 
Q 5725 1775 6175 1800 
L 6175 1375 
Q 5775 1400 5550 1400 
L 5275 1400 
L 5275 0 
Q 5275 -375 5050 -487 
Q 4825 -600 4300 -675 
Q 4275 -450 4100 -125 
Q 4500 -150 4650 -125 
Q 4800 -100 4800 200 
L 4800 1400 
L 4575 1400 
Q 4275 1400 3850 1375 
L 3850 1800 
Q 4250 1775 4550 1775 
L 4800 1775 
Q 4800 2000 4775 2200 
Q 5075 2450 5375 2850 
L 4650 2850 
L 4150 2825 
L 4150 3200 
Q 4000 3000 3900 2800 
Q 3725 2975 3475 3125 
z
M 2425 0 
Q 2900 -25 2975 25 
Q 3050 75 3050 225 
L 3050 2450 
L 2500 2450 
Q 2500 2000 2450 1562 
Q 2400 1125 2312 750 
Q 2225 375 2062 50 
Q 1900 -275 1625 -625 
Q 1475 -400 1200 -275 
Q 1575 50 1762 537 
Q 1950 1025 2000 1525 
Q 2050 2025 2062 2575 
Q 2075 3125 2075 3700 
Q 1900 3700 1575 3675 
L 1575 4075 
Q 2100 4050 2250 4050 
L 3125 4050 
Q 3350 4050 3675 4075 
L 3675 3675 
Q 3375 3700 3100 3700 
L 2525 3700 
L 2525 2850 
L 3525 2850 
Q 3500 2450 3500 2100 
L 3500 125 
Q 3500 -125 3337 -262 
Q 3175 -400 2625 -500 
Q 2600 -275 2425 0 
z
M 1475 1600 
Q 1275 1050 1187 775 
Q 1100 500 987 137 
Q 875 -225 800 -625 
Q 475 -425 225 -350 
Q 525 175 650 575 
Q 775 975 850 1250 
Q 925 1525 1000 1850 
Q 1250 1700 1475 1600 
z
M 1300 2425 
Q 1050 2625 825 2762 
Q 600 2900 275 3050 
Q 425 3250 550 3450 
Q 750 3325 1037 3162 
Q 1325 3000 1575 2825 
Q 1425 2600 1300 2425 
z
M 725 5075 
Q 875 4950 1137 4762 
Q 1400 4575 1600 4400 
Q 1400 4175 1275 4000 
Q 1025 4275 425 4700 
Q 575 4900 725 5075 
z
M 2525 5225 
Q 2925 4625 3000 4450 
Q 2800 4375 2575 4225 
Q 2500 4425 2400 4612 
Q 2300 4800 2150 5000 
Q 2350 5100 2525 5225 
z
" transform="scale(0.015625)"/>
       <path id="SimHei-8239" d="M 2075 5100 
Q 1900 4750 1800 4500 
L 2825 4500 
Q 2800 4075 2800 3675 
L 2800 300 
Q 2825 -325 1900 -375 
Q 1875 -100 1750 175 
Q 2350 125 2350 450 
L 2350 2100 
L 1175 2100 
Q 1175 1625 1112 1100 
Q 1050 575 925 162 
Q 800 -250 650 -550 
Q 450 -325 225 -200 
Q 375 25 487 350 
Q 600 675 662 1100 
Q 725 1525 725 2100 
Q 500 2100 250 2075 
L 250 2525 
Q 550 2500 725 2500 
L 725 3675 
Q 725 4050 700 4500 
L 1325 4500 
Q 1525 5075 1550 5275 
Q 1850 5150 2075 5100 
z
M 5775 2050 
Q 5750 1625 5750 825 
Q 5750 25 5775 -500 
L 5275 -500 
L 5275 -25 
L 3850 -25 
L 3850 -525 
L 3350 -525 
Q 3375 -25 3375 800 
Q 3375 1625 3350 2050 
L 5775 2050 
z
M 5475 4800 
Q 5450 4475 5450 4125 
L 5450 3350 
Q 5450 3025 5587 3012 
Q 5725 3000 6200 3000 
Q 6125 2800 6100 2525 
L 5400 2525 
Q 4975 2600 4975 3000 
L 4975 4400 
L 3925 4400 
Q 3925 3425 3800 3037 
Q 3675 2650 3350 2250 
Q 3150 2450 2925 2600 
Q 3400 2950 3425 3687 
Q 3450 4425 3425 4800 
L 5475 4800 
z
M 2350 2500 
L 2350 4100 
L 1175 4100 
L 1175 2500 
L 2350 2500 
z
M 5275 375 
L 5275 1650 
L 3850 1650 
L 3850 375 
L 5275 375 
z
M 1775 1800 
Q 1900 1475 2125 900 
Q 1850 825 1675 725 
Q 1475 1425 1375 1650 
Q 1550 1725 1775 1800 
z
M 1850 3800 
Q 1925 3550 2125 2950 
Q 1850 2900 1675 2825 
Q 1625 3125 1450 3675 
Q 1650 3725 1850 3800 
z
" transform="scale(0.015625)"/>
       <path id="SimHei-7801" d="M 1975 4750 
Q 2325 4750 2725 4775 
L 2725 4350 
Q 2300 4375 2100 4375 
L 1725 4375 
Q 1625 3775 1400 3050 
L 2600 3050 
Q 2575 2625 2575 2300 
L 2575 1100 
Q 2575 775 2600 150 
L 2150 150 
L 2150 600 
L 1400 600 
L 1400 -125 
L 925 -125 
Q 950 500 950 875 
L 950 2050 
Q 775 1725 550 1325 
Q 400 1525 200 1675 
Q 650 2275 925 3062 
Q 1200 3850 1250 4375 
Q 800 4375 350 4350 
L 350 4775 
Q 800 4750 1125 4750 
L 1975 4750 
z
M 4725 2425 
L 4975 4500 
L 3825 4500 
Q 3400 4500 2950 4475 
L 2950 4925 
Q 3400 4875 3825 4875 
L 5500 4875 
Q 5375 4200 5175 2425 
L 5975 2425 
Q 5925 2150 5887 1500 
Q 5850 850 5750 300 
Q 5650 -250 5412 -412 
Q 5175 -575 4475 -625 
Q 4450 -350 4275 -75 
Q 4925 -100 5100 -25 
Q 5275 50 5350 712 
Q 5425 1375 5450 2025 
L 3125 2025 
Q 3200 2575 3262 3112 
Q 3325 3650 3350 4150 
L 3900 4050 
Q 3800 3800 3737 3362 
Q 3675 2925 3625 2425 
L 4725 2425 
z
M 2150 1000 
L 2150 2650 
L 1400 2650 
L 1400 1000 
L 2150 1000 
z
M 4325 1325 
Q 4625 1325 5275 1350 
L 5275 900 
Q 4600 925 4150 925 
L 3500 925 
Q 3225 925 2825 900 
L 2825 1350 
Q 3100 1325 3500 1325 
L 4325 1325 
z
" transform="scale(0.015625)"/>
       <path id="SimHei-5934" d="M 4175 5100 
Q 4000 4750 4000 4100 
Q 4000 3475 3875 2150 
L 5025 2150 
Q 5500 2150 6100 2175 
L 6100 1650 
Q 5500 1675 5075 1675 
L 3775 1675 
Q 3500 975 3075 575 
Q 2650 175 2162 -112 
Q 1675 -400 950 -700 
Q 825 -450 500 -250 
Q 1125 -175 2050 375 
Q 2975 925 3250 1675 
L 1425 1675 
Q 925 1675 375 1650 
L 375 2175 
Q 925 2150 1275 2150 
L 3400 2150 
Q 3450 2575 3487 3250 
Q 3525 3925 3525 5200 
Q 3800 5150 4175 5100 
z
M 4050 1150 
Q 4500 900 4975 575 
Q 5450 250 6000 -125 
Q 5825 -250 5650 -550 
Q 5200 -225 4750 112 
Q 4300 450 3750 750 
Q 3875 900 4050 1150 
z
M 975 3650 
Q 1850 3175 2325 2850 
Q 2100 2650 1950 2400 
Q 1725 2650 650 3250 
Q 850 3450 975 3650 
z
M 1650 4900 
Q 2375 4475 3000 4050 
Q 2800 3900 2650 3625 
Q 2150 4050 1350 4525 
Q 1525 4700 1650 4900 
z
" transform="scale(0.015625)"/>
      </defs>
      <use xlink:href="#SimHei-5927"/>
      <use xlink:href="#SimHei-575d" x="100"/>
      <use xlink:href="#SimHei-6e38" x="200"/>
      <use xlink:href="#SimHei-8239" x="300"/>
      <use xlink:href="#SimHei-7801" x="400"/>
      <use xlink:href="#SimHei-5934" x="500"/>
     </g>
    </g>
   </g>
   <g id="text_29">
    <!-- 净月潭国家森林公园图模型 -->
    <g transform="translate(416.4 18.520312) scale(0.14 -0.14)">
     <defs>
      <path id="SimHei-56fd" d="M 5775 4975 
Q 5750 4350 5750 3575 
L 5750 900 
Q 5750 125 5775 -625 
L 5275 -625 
L 5275 -275 
L 1125 -275 
L 1125 -650 
L 625 -650 
Q 650 125 650 950 
L 650 3575 
Q 650 4325 625 4975 
L 5775 4975 
z
M 5275 100 
L 5275 4600 
L 1125 4600 
L 1125 100 
L 5275 100 
z
M 3975 3925 
Q 4350 3925 4775 3950 
L 4775 3500 
Q 4400 3525 3975 3525 
L 3350 3525 
L 3350 2700 
L 3800 2700 
Q 4250 2700 4650 2725 
L 4650 2275 
Q 4250 2300 3800 2300 
L 3350 2300 
L 3350 1175 
L 4050 1175 
Q 4500 1175 4900 1200 
L 4900 750 
Q 4525 775 4050 775 
L 2350 775 
Q 1925 775 1500 750 
L 1500 1200 
Q 1925 1175 2350 1175 
L 2900 1175 
L 2900 2300 
L 2550 2300 
Q 2125 2300 1750 2275 
L 1750 2725 
Q 2125 2700 2550 2700 
L 2900 2700 
L 2900 3525 
L 2525 3525 
Q 2075 3525 1650 3500 
L 1650 3950 
Q 2075 3925 2525 3925 
L 3975 3925 
z
M 4050 2125 
Q 4175 2000 4550 1600 
Q 4300 1450 4125 1325 
Q 4050 1425 3700 1850 
Q 3900 2000 4050 2125 
z
" transform="scale(0.015625)"/>
      <path id="SimHei-5bb6" d="M 3425 1125 
Q 2600 475 1900 100 
Q 1200 -275 700 -525 
Q 500 -275 325 -75 
Q 1550 325 2262 775 
Q 2975 1225 3275 1550 
Q 3175 1725 3075 1850 
Q 2300 1300 1700 975 
Q 1100 650 750 525 
Q 575 775 375 950 
Q 1375 1250 1962 1600 
Q 2550 1950 2800 2175 
Q 2700 2300 2575 2450 
Q 2175 2225 1712 2012 
Q 1250 1800 725 1575 
Q 575 1825 375 2075 
Q 1400 2325 1950 2600 
Q 2500 2875 2750 3150 
L 2400 3150 
Q 2050 3150 1575 3125 
L 1575 3575 
Q 2050 3550 2400 3550 
L 4100 3550 
Q 4425 3550 4900 3575 
L 4900 3125 
Q 4425 3150 4100 3150 
L 3425 3150 
Q 3200 2950 2925 2700 
Q 3125 2525 3300 2337 
Q 3475 2150 3675 1825 
Q 3975 1975 4350 2237 
Q 4725 2500 5025 2900 
Q 5400 2550 5525 2425 
Q 5225 2300 5000 2175 
Q 4775 2050 4625 1900 
Q 4850 1150 5200 825 
Q 5550 500 6175 200 
Q 5925 25 5725 -275 
Q 5025 175 4700 662 
Q 4375 1150 4250 1675 
Q 4050 1550 3850 1450 
Q 3975 775 3962 325 
Q 3950 -125 3587 -362 
Q 3225 -600 2725 -675 
Q 2625 -350 2500 -100 
Q 2925 -100 3175 -25 
Q 3425 50 3462 350 
Q 3500 650 3425 1125 
z
M 3350 5275 
Q 3400 5025 3575 4525 
L 5875 4525 
Q 5850 4125 5850 3875 
Q 5850 3650 5875 3300 
L 5350 3300 
L 5350 4125 
L 1000 4125 
L 1000 3175 
L 475 3175 
Q 500 3575 500 3875 
Q 500 4200 475 4525 
L 2975 4525 
Q 2875 4850 2750 5100 
Q 3075 5175 3350 5275 
z
" transform="scale(0.015625)"/>
      <path id="SimHei-56fe" d="M 5800 4975 
Q 5775 4350 5775 3600 
L 5775 925 
Q 5775 150 5800 -600 
L 5300 -600 
L 5300 -275 
L 1125 -275 
L 1125 -650 
L 625 -650 
Q 650 125 650 950 
L 650 3600 
Q 650 4325 625 4975 
L 5800 4975 
z
M 5300 150 
L 5300 4575 
L 1125 4575 
L 1125 150 
L 5300 150 
z
M 3225 4250 
Q 3075 4100 2950 3925 
L 4625 3925 
Q 4525 3700 4300 3375 
Q 4075 3050 3600 2600 
Q 4350 2225 5075 2150 
Q 4900 1925 4775 1675 
Q 3850 1950 3225 2350 
Q 2500 1875 1675 1650 
Q 1600 1875 1400 2075 
Q 2200 2200 2875 2600 
Q 2525 2925 2375 3150 
Q 2150 2900 1900 2650 
Q 1725 2850 1525 2950 
Q 1950 3300 2250 3737 
Q 2550 4175 2675 4475 
Q 2925 4350 3225 4250 
z
M 2450 1275 
Q 3550 950 4100 725 
Q 3975 525 3850 300 
Q 2825 725 2275 850 
Q 2375 1050 2450 1275 
z
M 2925 2050 
Q 3775 1700 4075 1600 
Q 3950 1400 3850 1150 
Q 3000 1550 2700 1650 
Q 2825 1825 2925 2050 
z
M 2625 3450 
Q 3000 3025 3275 2850 
Q 3600 3100 3875 3525 
L 2675 3525 
L 2625 3450 
z
" transform="scale(0.015625)"/>
      <path id="SimHei-6a21" d="M 5700 3675 
Q 5675 3400 5675 2725 
Q 5675 2050 5700 1725 
L 4375 1725 
Q 4350 1450 4325 1200 
L 5225 1200 
Q 5750 1200 6025 1225 
L 6025 825 
Q 5725 850 5225 850 
L 4700 850 
Q 5075 375 5437 137 
Q 5800 -100 6200 -200 
Q 5975 -375 5850 -625 
Q 5275 -400 4862 25 
Q 4450 450 4300 775 
L 4225 775 
Q 4000 275 3537 -62 
Q 3075 -400 2475 -625 
Q 2350 -375 2125 -200 
Q 2775 -75 3200 200 
Q 3625 475 3775 850 
L 3325 850 
Q 2800 850 2400 825 
L 2400 1225 
Q 2800 1200 3350 1200 
L 3875 1200 
Q 3925 1475 3925 1725 
L 2750 1725 
Q 2775 2075 2775 2700 
Q 2775 3350 2750 3675 
L 5700 3675 
z
M 2175 1650 
Q 2025 1975 1675 2525 
L 1675 300 
Q 1675 -300 1700 -550 
L 1175 -550 
Q 1200 -275 1200 250 
L 1200 2225 
Q 1125 2000 962 1712 
Q 800 1425 600 1050 
Q 450 1275 200 1425 
Q 600 1825 850 2425 
Q 1100 3025 1175 3425 
L 950 3425 
Q 700 3425 400 3400 
L 400 3825 
Q 675 3800 825 3800 
L 1200 3800 
L 1200 4350 
Q 1200 4775 1175 5150 
L 1700 5150 
Q 1675 4825 1675 4425 
L 1675 3800 
Q 2075 3800 2375 3825 
L 2375 3400 
Q 2050 3425 1675 3425 
L 1675 2575 
Q 1850 2675 2000 2775 
Q 2150 2525 2287 2325 
Q 2425 2125 2550 1925 
Q 2325 1775 2175 1650 
z
M 3375 4300 
L 3175 4300 
Q 2700 4300 2425 4275 
L 2425 4675 
Q 2700 4650 3150 4650 
L 3375 4650 
Q 3375 5000 3350 5225 
L 3825 5225 
Q 3800 5000 3800 4650 
L 4550 4650 
Q 4550 4975 4525 5200 
L 5025 5200 
Q 5000 4925 5000 4650 
L 5375 4650 
Q 5650 4650 5950 4675 
L 5950 4275 
Q 5650 4300 5375 4300 
L 5000 4300 
L 5000 3850 
L 4550 3850 
L 4550 4300 
L 3800 4300 
L 3800 3875 
L 3375 3875 
L 3375 4300 
z
M 5275 2075 
L 5275 2525 
L 3200 2525 
L 3200 2075 
L 5275 2075 
z
M 5275 2875 
L 5275 3325 
L 3200 3325 
L 3200 2875 
L 5275 2875 
z
" transform="scale(0.015625)"/>
      <path id="SimHei-578b" d="M 2625 1775 
Q 2650 2325 2650 2700 
L 2650 3000 
L 1825 3000 
Q 1725 2375 1425 2000 
Q 1125 1625 775 1425 
Q 650 1650 375 1900 
Q 850 2075 1062 2362 
Q 1275 2650 1350 3000 
Q 900 3000 375 2975 
L 375 3450 
Q 925 3425 1400 3425 
Q 1425 3950 1425 4475 
Q 1075 4475 700 4450 
L 700 4900 
Q 1050 4875 1525 4875 
L 3000 4875 
Q 3275 4875 3650 4900 
L 3650 4450 
Q 3325 4475 3125 4475 
L 3125 3425 
Q 3450 3425 3825 3450 
L 3825 2975 
Q 3450 3000 3125 3000 
L 3125 2675 
Q 3125 2225 3150 1775 
L 2625 1775 
z
M 3000 1175 
Q 3000 1375 2975 1725 
L 3500 1725 
Q 3475 1375 3475 1175 
L 4550 1175 
Q 5050 1175 5450 1200 
L 5450 725 
Q 4975 750 4550 750 
L 3475 750 
L 3475 -50 
L 5275 -50 
Q 5700 -50 6100 -25 
L 6100 -500 
Q 5725 -475 5300 -475 
L 1250 -475 
Q 775 -475 400 -500 
L 400 -25 
Q 775 -50 1250 -50 
L 3000 -50 
L 3000 750 
L 2025 750 
Q 1500 750 975 725 
L 1050 1200 
Q 1500 1175 2025 1175 
L 3000 1175 
z
M 5775 5200 
Q 5750 4775 5750 4325 
L 5750 2400 
Q 5775 1950 5612 1775 
Q 5450 1600 4900 1525 
Q 4825 1775 4675 2100 
Q 5175 2075 5237 2150 
Q 5300 2225 5300 2525 
L 5300 4325 
Q 5300 4775 5275 5200 
L 5775 5200 
z
M 4600 4750 
Q 4575 4450 4575 3975 
L 4575 3200 
Q 4575 2825 4600 2425 
L 4100 2425 
Q 4125 2825 4125 3200 
L 4125 3975 
Q 4125 4450 4100 4750 
L 4600 4750 
z
M 2650 3425 
L 2650 4475 
L 1875 4475 
Q 1850 3750 1850 3425 
L 2650 3425 
z
" transform="scale(0.015625)"/>
     </defs>
     <use xlink:href="#SimHei-51c0"/>
     <use xlink:href="#SimHei-6708" x="100"/>
     <use xlink:href="#SimHei-6f6d" x="200"/>
     <use xlink:href="#SimHei-56fd" x="300"/>
     <use xlink:href="#SimHei-5bb6" x="400"/>
     <use xlink:href="#SimHei-68ee" x="500"/>
     <use xlink:href="#SimHei-6797" x="600"/>
     <use xlink:href="#SimHei-516c" x="700"/>
     <use xlink:href="#SimHei-56ed" x="800"/>
     <use xlink:href="#SimHei-56fe" x="900"/>
     <use xlink:href="#SimHei-6a21" x="1000"/>
     <use xlink:href="#SimHei-578b" x="1100"/>
    </g>
   </g>
  </g>
 </g>
 <defs>
  <clipPath id="pd67947de79">
   <rect x="7.2" y="24.520312" width="986.4" height="464.88"/>
  </clipPath>
 </defs>
</svg>
